<svg width="158" height="117" viewBox="0 0 158 117" fill="none" xmlns="http://www.w3.org/2000/svg">
<path opacity="0.49" d="M74.0587 4.70624C72.4521 4.64977 70.8371 4.6417 69.2306 4.49649C67.1651 4.319 64.8956 3.601 62.898 4.44808C60.348 5.53719 60.484 9.20787 60.4585 11.4506C60.4245 14.5001 60.9175 17.5819 62.1585 20.4135C63.9011 24.3746 66.9696 27.6581 70.0976 30.7641C80.7312 41.3082 93.1754 51.4732 97.2129 65.5589C98.6494 70.5688 98.5559 76.1434 95.6914 80.6934C92.2999 86.0905 85.7463 86.4616 79.7877 87.0909C74.0757 87.6879 65.1761 89.6967 65.1931 96.6427C65.2016 99.0065 65.7201 101.645 68.0491 102.935C70.3441 104.202 72.5287 102.984 74.9427 103.177C82.8393 103.831 87.1573 111.301 94.6969 112.753C99.0999 113.6 103.681 111.6 106.878 108.599C110.235 105.444 111.383 101.023 111.536 96.675C111.655 93.1576 110.592 89.6725 110.983 86.1551C111.442 82.0084 114.273 78.7008 116.967 75.6029C120.104 71.9886 123.3 67.7775 123.691 62.9531C124.328 55.0228 124.609 46.8667 122.824 39.0412C121.846 34.7655 119.798 30.7399 117.146 27.166C115.42 24.8506 113.236 22.8499 111.595 20.4942C109.173 17.0091 107.099 13.1044 103.622 10.4261C101.429 8.73996 98.7514 8.14297 95.9889 8.68349C92.3509 9.40956 89.1038 10.176 85.5763 8.49794C82.4823 7.02966 79.4902 5.05314 75.9372 4.80305C75.3167 4.75465 74.6877 4.73044 74.0587 4.70624Z" fill="url(#paint0_linear)"/>
<path d="M129.369 104.403C126.53 108.123 121.464 106.985 118.846 104.194C115.055 100.152 113.499 99.3371 108.424 98.9096C107.149 98.8047 105.509 98.1674 104.778 97.0541C103.945 95.7875 104.727 94.8759 106.214 94.6661C109.64 94.1901 113.031 95.013 116.185 96.2554C118.965 97.3445 121.804 99.4904 124.872 99.6921C126.538 99.8051 129.071 98.6676 130.457 99.9987C131.766 101.265 130.202 103.314 129.369 104.403Z" fill="#BDCFFF"/>
<path d="M26.7899 57.6683H41.1465C43.0165 57.6683 44.555 56.2161 44.555 54.4332V39.3229C44.555 37.5481 43.025 36.0879 41.1465 36.0879H26.7899C24.9198 36.0879 23.3813 37.54 23.3813 39.3229V54.4332C23.3813 56.2161 24.9198 57.6683 26.7899 57.6683Z" fill="url(#paint1_linear)"/>
<path d="M26.9689 54.425C26.9349 54.425 26.9009 54.417 26.8754 54.3928C26.8159 54.3444 26.8159 54.2556 26.8669 54.1992L40.875 39.2583C40.9261 39.2018 41.0196 39.2018 41.0791 39.2502C41.1386 39.2986 41.1386 39.3873 41.0876 39.4438L27.0709 54.3766C27.0454 54.4089 27.0029 54.425 26.9689 54.425Z" fill="white"/>
<path d="M40.9678 54.4248C40.9253 54.4248 40.8913 54.4087 40.8658 54.3764L26.8576 39.4355C26.8066 39.379 26.8066 39.2984 26.8661 39.2419C26.9256 39.1935 27.0106 39.1935 27.0701 39.25L41.0783 54.1909C41.1293 54.2473 41.1293 54.328 41.0698 54.3845C41.0358 54.4087 41.0018 54.4248 40.9678 54.4248Z" fill="white"/>
<path d="M41.1464 82.581H26.7898C24.8348 82.581 23.2452 81.0724 23.2452 79.2169V64.0985C23.2452 62.243 24.8348 60.7344 26.7898 60.7344H41.1464C43.1015 60.7344 44.691 62.243 44.691 64.0985V79.2088C44.691 81.0724 43.1015 82.581 41.1464 82.581ZM26.7898 61.0087C24.9878 61.0087 23.5257 62.3963 23.5257 64.1066V79.2169C23.5257 80.9272 24.9878 82.3148 26.7898 82.3148H41.1464C42.9485 82.3148 44.4105 80.9272 44.4105 79.2169V64.0985C44.4105 62.3882 42.9485 61.0006 41.1464 61.0006H26.7898V61.0087Z" fill="#A6BAF7"/>
<path d="M26.9697 79.1921C26.9357 79.1921 26.9017 79.1841 26.8762 79.1599C26.8167 79.1115 26.8167 79.0227 26.8677 78.9662L40.8759 64.0254C40.9269 63.9689 41.0204 63.9689 41.0799 64.0173C41.1394 64.0657 41.1394 64.1544 41.0884 64.2109L27.0717 79.1518C27.0462 79.1841 27.0037 79.1921 26.9697 79.1921Z" fill="url(#paint2_linear)"/>
<path d="M40.9679 79.1926C40.9254 79.1926 40.8914 79.1765 40.8659 79.1442L26.8577 64.2114C26.8067 64.1549 26.8067 64.0742 26.8662 64.0178C26.9257 63.9694 27.0107 63.9694 27.0702 64.0258L41.0784 78.9667C41.1294 79.0232 41.1294 79.1039 41.0699 79.1603C41.0359 79.1845 41.0019 79.1926 40.9679 79.1926Z" fill="url(#paint3_linear)"/>
<path d="M52.0263 82.4432H66.3829C68.253 82.4432 69.7915 80.9911 69.7915 79.2082V64.0978C69.7915 62.323 68.2615 60.8628 66.3829 60.8628H52.0263C50.1563 60.8628 48.6178 62.3149 48.6178 64.0978V79.2082C48.6263 80.9911 50.1563 82.4432 52.0263 82.4432Z" fill="#ECF2FE"/>
<path d="M52.205 79.1926C52.171 79.1926 52.137 79.1845 52.1115 79.1603C52.052 79.1119 52.052 79.0232 52.103 78.9667L66.1111 64.0258C66.1621 63.9694 66.2556 63.9694 66.3151 64.0178C66.3747 64.0662 66.3746 64.1549 66.3236 64.2114L52.3155 79.1523C52.2815 79.1845 52.2475 79.1926 52.205 79.1926Z" fill="white"/>
<path d="M66.2131 79.1926C66.1706 79.1926 66.1366 79.1765 66.1111 79.1442L52.103 64.2114C52.052 64.1549 52.052 64.0742 52.1115 64.0178C52.171 63.9694 52.256 63.9694 52.3155 64.0258L66.3236 78.9667C66.3746 79.0232 66.3747 79.1039 66.3151 79.1603C66.2811 79.1845 66.2471 79.1926 66.2131 79.1926Z" fill="white"/>
<path d="M52.0263 57.6683H66.3829C68.253 57.6683 69.7915 56.2161 69.7915 54.4332V39.3229C69.7915 37.5481 68.2615 36.0879 66.3829 36.0879H52.0263C50.1563 36.0879 48.6178 37.54 48.6178 39.3229V54.4332C48.6263 56.2161 50.1563 57.6683 52.0263 57.6683Z" fill="#ECF2FE"/>
<path d="M52.2047 54.4255C52.1707 54.4255 52.1367 54.4175 52.1112 54.3933C52.0517 54.3449 52.0517 54.2561 52.1027 54.1996L66.1109 39.2588C66.1619 39.2023 66.2554 39.2023 66.3149 39.2507C66.3744 39.2991 66.3744 39.3878 66.3234 39.4443L52.3152 54.3771C52.2812 54.4094 52.2472 54.4255 52.2047 54.4255Z" fill="#FF7A46"/>
<path d="M66.2139 54.4248C66.1714 54.4248 66.1374 54.4087 66.1119 54.3764L52.1037 39.4355C52.0527 39.379 52.0527 39.2984 52.1122 39.2419C52.1717 39.1935 52.2567 39.1935 52.3162 39.25L66.3244 54.1909C66.3754 54.2473 66.3754 54.328 66.3159 54.3845C66.2819 54.4087 66.2479 54.4248 66.2139 54.4248Z" fill="#FF7A46"/>
<path opacity="0.56" d="M47.3684 90.0751H19.2501C18.2216 90.0751 17.3801 89.2764 17.3801 88.3002C17.3801 87.3241 18.2216 86.5254 19.2501 86.5254H47.3599C48.3884 86.5254 49.2299 87.3241 49.2299 88.3002C49.2384 89.2764 48.3969 90.0751 47.3684 90.0751Z" fill="#CDDBFF"/>
<g opacity="0.56">
<path opacity="0.56" d="M78.0372 28.9329H25.0221C24.6311 28.9329 24.3166 28.6345 24.3166 28.2634C24.3166 27.8922 24.6311 27.5938 25.0221 27.5938H78.0372C78.4282 27.5938 78.7427 27.8922 78.7427 28.2634C78.7427 28.6345 78.4282 28.9329 78.0372 28.9329Z" fill="#CDDBFF"/>
</g>
<path d="M68.8484 31.2886C70.5431 31.2886 71.917 29.9847 71.917 28.3762C71.917 26.7678 70.5431 25.4639 68.8484 25.4639C67.1537 25.4639 65.7799 26.7678 65.7799 28.3762C65.7799 29.9847 67.1537 31.2886 68.8484 31.2886Z" fill="url(#paint4_linear)"/>
<g opacity="0.56">
<path opacity="0.56" d="M78.0372 20.0028H25.0221C24.6311 20.0028 24.3166 19.7043 24.3166 19.3332C24.3166 18.9621 24.6311 18.6636 25.0221 18.6636H78.0372C78.4282 18.6636 78.7427 18.9621 78.7427 19.3332C78.7427 19.6962 78.4282 20.0028 78.0372 20.0028Z" fill="#CDDBFF"/>
</g>
<path d="M46.5612 22.3579C48.2559 22.3579 49.6297 21.054 49.6297 19.4455C49.6297 17.8371 48.2559 16.5332 46.5612 16.5332C44.8665 16.5332 43.4927 17.8371 43.4927 19.4455C43.4927 21.054 44.8665 22.3579 46.5612 22.3579Z" fill="url(#paint5_linear)"/>
<g opacity="0.56">
<path opacity="0.56" d="M78.0372 11.0633H25.0221C24.6311 11.0633 24.3166 10.7648 24.3166 10.3937C24.3166 10.0226 24.6311 9.72412 25.0221 9.72412H78.0372C78.4282 9.72412 78.7427 10.0226 78.7427 10.3937C78.7427 10.7568 78.4282 11.0633 78.0372 11.0633Z" fill="#CDDBFF"/>
</g>
<path d="M62.0569 13.4194C63.7516 13.4194 65.1254 12.1155 65.1254 10.5071C65.1254 8.89863 63.7516 7.59473 62.0569 7.59473C60.3622 7.59473 58.9884 8.89863 58.9884 10.5071C58.9884 12.1155 60.3622 13.4194 62.0569 13.4194Z" fill="url(#paint6_linear)"/>
<g opacity="0.67">
<g opacity="0.67">
<path opacity="0.67" d="M51.5252 31.6603H50.9557C50.9132 31.6603 50.8877 31.6279 50.8877 31.5955C50.8877 31.5551 50.9217 31.5308 50.9557 31.5308H51.5252C51.5677 31.5308 51.5932 31.5632 51.5932 31.5955C51.5932 31.6279 51.5677 31.6603 51.5252 31.6603Z" fill="#A6BAF7"/>
</g>
<g opacity="0.67">
<path opacity="0.67" d="M49.8422 31.6603H48.7287C48.6862 31.6603 48.6607 31.6279 48.6607 31.5955C48.6607 31.5551 48.6947 31.5308 48.7287 31.5308H49.8422C49.8848 31.5308 49.9103 31.5632 49.9103 31.5955C49.9188 31.6279 49.8848 31.6603 49.8422 31.6603ZM47.6152 31.6603H46.5017C46.4592 31.6603 46.4337 31.6279 46.4337 31.5955C46.4337 31.5551 46.4677 31.5308 46.5017 31.5308H47.6152C47.6577 31.5308 47.6832 31.5632 47.6832 31.5955C47.6832 31.6279 47.6577 31.6603 47.6152 31.6603ZM45.3882 31.6603H44.2747C44.2322 31.6603 44.2067 31.6279 44.2067 31.5955C44.2067 31.5551 44.2407 31.5308 44.2747 31.5308H45.3882C45.4307 31.5308 45.4562 31.5632 45.4562 31.5955C45.4562 31.6279 45.4222 31.6603 45.3882 31.6603ZM43.1527 31.6603H42.0392C41.9967 31.6603 41.9712 31.6279 41.9712 31.5955C41.9712 31.5551 42.0052 31.5308 42.0392 31.5308H43.1527C43.1952 31.5308 43.2207 31.5632 43.2207 31.5955C43.2292 31.6279 43.1952 31.6603 43.1527 31.6603ZM40.9257 31.6603H39.8121C39.7696 31.6603 39.7441 31.6279 39.7441 31.5955C39.7441 31.5551 39.7781 31.5308 39.8121 31.5308H40.9257C40.9682 31.5308 40.9937 31.5632 40.9937 31.5955C40.9937 31.6279 40.9682 31.6603 40.9257 31.6603Z" fill="#A6BAF7"/>
</g>
<g opacity="0.67">
<path opacity="0.67" d="M38.6985 31.6603H38.129C38.0865 31.6603 38.061 31.6279 38.061 31.5955C38.061 31.5551 38.095 31.5308 38.129 31.5308H38.6985C38.741 31.5308 38.7665 31.5632 38.7665 31.5955C38.7665 31.6279 38.7325 31.6603 38.6985 31.6603Z" fill="#A6BAF7"/>
</g>
</g>
<g opacity="0.67">
<g opacity="0.67">
<path opacity="0.67" d="M32.4088 13.4924H31.8393C31.7968 13.4924 31.7713 13.46 31.7713 13.4276C31.7713 13.3952 31.8053 13.3628 31.8393 13.3628H32.4088C32.4513 13.3628 32.4768 13.3952 32.4768 13.4276C32.4768 13.46 32.4428 13.4924 32.4088 13.4924Z" fill="#A6BAF7"/>
</g>
<g opacity="0.67">
<path opacity="0.67" d="M30.726 13.4924H29.6125C29.57 13.4924 29.5445 13.46 29.5445 13.4276C29.5445 13.3952 29.5785 13.3628 29.6125 13.3628H30.726C30.7685 13.3628 30.794 13.3952 30.794 13.4276C30.794 13.46 30.76 13.4924 30.726 13.4924ZM28.4905 13.4924H27.377C27.3345 13.4924 27.309 13.46 27.309 13.4276C27.309 13.3952 27.343 13.3628 27.377 13.3628H28.4905C28.533 13.3628 28.5585 13.3952 28.5585 13.4276C28.5585 13.46 28.533 13.4924 28.4905 13.4924ZM26.2634 13.4924H25.1499C25.1074 13.4924 25.0819 13.46 25.0819 13.4276C25.0819 13.3952 25.1159 13.3628 25.1499 13.3628H26.2634C26.3059 13.3628 26.3314 13.3952 26.3314 13.4276C26.3314 13.46 26.3059 13.4924 26.2634 13.4924ZM24.0364 13.4924H22.9229C22.8804 13.4924 22.8549 13.46 22.8549 13.4276C22.8549 13.3952 22.8889 13.3628 22.9229 13.3628H24.0364C24.0789 13.3628 24.1044 13.3952 24.1044 13.4276C24.1044 13.46 24.0704 13.4924 24.0364 13.4924ZM21.8094 13.4924H20.6874C20.6449 13.4924 20.6194 13.46 20.6194 13.4276C20.6194 13.3952 20.6534 13.3628 20.6874 13.3628H21.8009C21.8434 13.3628 21.8689 13.3952 21.8689 13.4276C21.8689 13.46 21.8434 13.4924 21.8094 13.4924Z" fill="#A6BAF7"/>
</g>
<g opacity="0.67">
<path opacity="0.67" d="M19.5735 13.4929H19.004C18.9615 13.4929 18.936 13.4605 18.936 13.4281C18.936 13.3957 18.97 13.3633 19.004 13.3633H19.5735C19.616 13.3633 19.6415 13.3957 19.6415 13.4281C19.6415 13.4605 19.616 13.4929 19.5735 13.4929Z" fill="#A6BAF7"/>
</g>
</g>
<path d="M134.28 8.9924L134.071 9.17041L135.715 10.9026L135.924 10.7246L134.28 8.9924Z" fill="#A6BAF7"/>
<path d="M135.711 8.98784L134.069 10.7222L134.278 10.8999L135.919 9.16558L135.711 8.98784Z" fill="#A6BAF7"/>
<path d="M137.963 10.9187C137.368 10.9187 136.892 10.4589 136.892 9.90224C136.892 9.33752 137.377 8.88574 137.963 8.88574C138.55 8.88574 139.034 9.34559 139.034 9.90224C139.034 10.467 138.558 10.9187 137.963 10.9187ZM137.963 9.16004C137.53 9.16004 137.173 9.49887 137.173 9.91031C137.173 10.3217 137.53 10.6606 137.963 10.6606C138.397 10.6606 138.754 10.3217 138.754 9.91031C138.754 9.4908 138.397 9.16004 137.963 9.16004Z" fill="#A6BAF7"/>
<path d="M138.719 71.6417H107.26C106.147 71.6417 105.246 70.7865 105.246 69.7297V9.45788C105.246 8.40105 106.147 7.5459 107.26 7.5459H138.719C139.833 7.5459 140.734 8.40105 140.734 9.45788V69.7297C140.734 70.7784 139.824 71.6417 138.719 71.6417ZM107.26 7.81212C106.308 7.81212 105.526 8.54626 105.526 9.45788V69.7297C105.526 70.6332 106.3 71.3754 107.26 71.3754H138.719C139.671 71.3754 140.453 70.6413 140.453 69.7297V9.45788C140.453 8.55433 139.68 7.81212 138.719 7.81212H107.26Z" fill="#A6BAF7"/>
<path d="M140.59 63.1318H105.646C105.569 63.1318 105.501 63.0751 105.501 62.9941C105.501 62.9212 105.561 62.8564 105.646 62.8564H140.59C140.666 62.8564 140.734 62.9131 140.734 62.9941C140.734 63.067 140.666 63.1318 140.59 63.1318Z" fill="#A6BAF7"/>
<path d="M140.59 11.9677H105.646C105.569 11.9677 105.501 11.911 105.501 11.8301C105.501 11.7491 105.561 11.6924 105.646 11.6924H140.59C140.666 11.6924 140.734 11.7491 140.734 11.8301C140.734 11.911 140.666 11.9677 140.59 11.9677Z" fill="#A6BAF7"/>
<path d="M122.986 69.8509C121.643 69.8509 120.555 68.8183 120.555 67.5436C120.555 66.269 121.643 65.2363 122.986 65.2363C124.329 65.2363 125.417 66.269 125.417 67.5436C125.417 68.8102 124.329 69.8509 122.986 69.8509ZM122.986 65.5026C121.804 65.5026 120.835 66.4142 120.835 67.5436C120.835 68.665 121.796 69.5847 122.986 69.5847C124.167 69.5847 125.136 68.6731 125.136 67.5436C125.136 66.4142 124.167 65.5026 122.986 65.5026Z" fill="#A6BAF7"/>
<path d="M117.35 20.1474C117.138 19.3326 116.874 18.5662 116.577 17.832H116.237C114.613 17.832 113.287 19.0906 113.287 20.6314V25.2299C115.965 24.2295 118.124 22.7935 117.35 20.1474Z" fill="url(#paint7_linear)"/>
<path d="M126.326 17.832H116.577C116.883 18.5662 117.138 19.3326 117.35 20.1474C118.124 22.7935 115.973 24.2295 113.287 25.2299V34.459C113.287 35.5239 113.916 36.4517 114.843 36.9196C117.444 35.7821 119.968 34.572 122.017 32.9665C125.459 30.4011 122.017 25.5042 123.487 21.777C124.006 20.2926 125.017 18.9373 126.326 17.832Z" fill="url(#paint8_linear)"/>
<path d="M129.395 17.832H126.326C125.017 18.9373 124.014 20.2926 123.487 21.777C122.017 25.5042 125.451 30.4011 122.017 32.9665C119.968 34.572 117.444 35.774 114.843 36.9196C115.259 37.1293 115.735 37.2503 116.237 37.2503H129.403C131.027 37.2503 132.353 35.9918 132.353 34.4509V20.6314C132.344 19.0906 131.018 17.832 129.395 17.832Z" fill="url(#paint9_linear)"/>
<path d="M112.429 58.3787H133.543C135.022 58.3787 136.237 57.2251 136.237 55.8213V55.6116C136.237 54.2078 135.022 53.0542 133.543 53.0542H112.429C110.95 53.0542 109.734 54.2078 109.734 55.6116V55.8213C109.734 57.2251 110.95 58.3787 112.429 58.3787Z" fill="url(#paint10_linear)"/>
<path opacity="0.56" d="M132.438 55.3375H113.185C113.007 55.3375 112.854 55.2004 112.854 55.0229V54.9987C112.854 54.8293 112.998 54.6841 113.185 54.6841H132.438C132.616 54.6841 132.769 54.8212 132.769 54.9987V55.0229C132.769 55.1923 132.625 55.3375 132.438 55.3375Z" fill="white"/>
<path opacity="0.56" d="M132.438 56.8541H113.185C113.007 56.8541 112.854 56.717 112.854 56.5395V56.5153C112.854 56.3459 112.998 56.2007 113.185 56.2007H132.438C132.616 56.2007 132.769 56.3378 132.769 56.5153V56.5395C132.769 56.717 132.625 56.8541 132.438 56.8541Z" fill="white"/>
<g opacity="0.56">
<g opacity="0.56">
<path opacity="0.56" d="M133.645 41.8728H111.714C111.145 41.8728 110.677 41.429 110.677 40.8885C110.677 40.348 111.145 39.9043 111.714 39.9043H133.645C134.214 39.9043 134.682 40.348 134.682 40.8885C134.69 41.429 134.223 41.8728 133.645 41.8728ZM111.723 40.1705C111.306 40.1705 110.966 40.4932 110.966 40.8885C110.966 41.2838 111.306 41.6065 111.723 41.6065H133.653C134.07 41.6065 134.41 41.2838 134.41 40.8885C134.41 40.4932 134.07 40.1705 133.653 40.1705H111.723Z" fill="#CDDBFF"/>
</g>
<g opacity="0.56">
<path opacity="0.56" d="M133.645 44.9064H111.715C111.145 44.9064 110.678 44.4627 110.678 43.9222C110.678 43.3817 111.145 42.938 111.715 42.938H133.645C134.214 42.938 134.682 43.3817 134.682 43.9222C134.69 44.4627 134.223 44.9064 133.645 44.9064ZM111.723 43.2042C111.307 43.2042 110.967 43.5269 110.967 43.9222C110.967 44.3175 111.307 44.6402 111.723 44.6402H133.653C134.07 44.6402 134.41 44.3175 134.41 43.9222C134.41 43.5269 134.07 43.2042 133.653 43.2042H111.723Z" fill="#CDDBFF"/>
</g>
<g opacity="0.56">
<path opacity="0.56" d="M133.645 47.9396H111.715C111.145 47.9396 110.678 47.4959 110.678 46.9554C110.678 46.4149 111.145 45.9712 111.715 45.9712H133.645C134.214 45.9712 134.682 46.4149 134.682 46.9554C134.69 47.4959 134.223 47.9396 133.645 47.9396ZM111.723 46.2374C111.307 46.2374 110.967 46.5601 110.967 46.9554C110.967 47.3507 111.307 47.6734 111.723 47.6734H133.653C134.07 47.6734 134.41 47.3507 134.41 46.9554C134.41 46.5601 134.07 46.2374 133.653 46.2374H111.723Z" fill="#CDDBFF"/>
</g>
<g opacity="0.56">
<path opacity="0.56" d="M133.645 50.9729H111.715C111.145 50.9729 110.678 50.5291 110.678 49.9886C110.678 49.4481 111.145 49.0044 111.715 49.0044H133.645C134.214 49.0044 134.682 49.4481 134.682 49.9886C134.69 50.5291 134.223 50.9729 133.645 50.9729ZM111.723 49.2706C111.307 49.2706 110.967 49.5933 110.967 49.9886C110.967 50.3839 111.307 50.7066 111.723 50.7066H133.653C134.07 50.7066 134.41 50.3839 134.41 49.9886C134.41 49.5933 134.07 49.2706 133.653 49.2706H111.723Z" fill="#CDDBFF"/>
</g>
</g>
<path d="M102.024 24.9314C101.948 24.9314 101.88 24.875 101.88 24.7943V12.4511C101.88 12.3785 101.939 12.314 102.024 12.314C102.109 12.314 102.169 12.3704 102.169 12.4511V24.7943C102.169 24.8669 102.101 24.9314 102.024 24.9314Z" fill="#A6BAF7"/>
<path d="M67.2758 90.0762C67.2758 90.0762 45.4391 71.0693 49.5956 79.6934C53.7522 88.3175 67.2758 90.0762 67.2758 90.0762Z" fill="#03BCE1"/>
<path d="M67.31 90.1164C67.31 90.1164 60.7139 58.4921 58.7164 68.3343C56.7189 78.1847 67.31 90.1164 67.31 90.1164Z" fill="#86F7EA"/>
<path d="M66.2218 89.4871C66.2133 89.4871 66.2133 89.4871 66.2048 89.4871C64.3263 88.9869 62.6093 87.7284 61.0878 86.6232C60.9008 86.486 60.7053 86.3408 60.5183 86.2117C59.2517 85.292 57.9172 84.4207 56.6337 83.5737C55.9197 83.1058 55.1717 82.6136 54.4492 82.1296C54.2112 81.9682 53.9647 81.7746 53.7012 81.5729C53.0297 81.0486 52.2732 80.4596 51.5082 80.3225C51.4657 80.3144 51.4401 80.2821 51.4487 80.2418C51.4572 80.2095 51.4912 80.1773 51.5337 80.1853C52.3412 80.3305 53.1147 80.9275 53.7947 81.4681C54.0497 81.6697 54.2962 81.8634 54.5342 82.0166C55.2567 82.5088 55.9962 82.9928 56.7102 83.4607C58.0022 84.3078 59.3282 85.1791 60.6033 86.0988C60.7903 86.2359 60.9773 86.3731 61.1728 86.5102C62.6773 87.6155 64.3858 88.8659 66.2388 89.35C66.2728 89.358 66.2983 89.3984 66.2898 89.4306C66.2813 89.471 66.2558 89.4871 66.2218 89.4871Z" fill="white"/>
<path d="M67.4629 89.7214C67.4459 89.7214 67.4204 89.7133 67.4119 89.6971C66.1284 88.3015 65.4144 86.3572 64.7854 84.6389C64.7089 84.421 64.6239 84.2113 64.5474 83.9935C64.0204 82.5655 63.4084 81.1457 62.8219 79.7661C62.4904 78.9997 62.1588 78.2091 61.8358 77.4266C61.7678 77.2572 61.6658 77.0797 61.5468 76.878C61.0198 75.9825 60.1358 74.4739 60.0253 69.7787C60.0253 69.7383 60.0593 69.7141 60.0933 69.7061C60.1358 69.7061 60.1613 69.7383 60.1698 69.7706C60.2718 74.4336 61.1473 75.918 61.6658 76.8054C61.7848 77.0071 61.8953 77.1926 61.9633 77.3701C62.2864 78.1527 62.6264 78.9433 62.9494 79.7097C63.5359 81.0892 64.1479 82.5091 64.6834 83.9451C64.7599 84.1548 64.8364 84.3726 64.9214 84.5905C65.5419 86.2927 66.2474 88.2289 67.5139 89.6003C67.5394 89.6245 67.5394 89.6729 67.5054 89.6971C67.4884 89.7213 67.4799 89.7214 67.4629 89.7214Z" fill="white"/>
<path d="M67.4713 90.0761C67.4713 90.0761 68.0153 89.4549 68.8653 88.4142C72.6734 80.1451 75.3169 71.7792 77.4334 63.2035C73.6254 59.8232 67.4713 90.0761 67.4713 90.0761Z" fill="#03BCE1"/>
<path d="M79.2013 68.6178C78.7168 65.4957 78.1133 63.8096 77.4333 63.2046C75.3167 71.7803 72.6732 80.1462 68.8652 88.4153C72.1462 84.3977 80.0428 74.0634 79.2013 68.6178Z" fill="#00DEE1"/>
<path d="M68.0067 89.8505C67.9642 89.8505 67.9387 89.8182 67.9387 89.786C67.8962 87.6884 68.7802 85.5102 69.5537 83.5902C69.6557 83.3482 69.7493 83.1061 69.8428 82.8722C70.4803 81.2668 71.0498 79.6129 71.5938 78.0075C71.8998 77.1201 72.2143 76.2004 72.5373 75.2969C72.6053 75.1032 72.6563 74.8773 72.7073 74.6192C72.9368 73.4736 73.3278 71.5616 76.8468 67.415C76.8723 67.3827 76.9148 67.3827 76.9488 67.4069C76.9828 67.4311 76.9828 67.4714 76.9573 67.5037C73.4638 71.6181 73.0728 73.5139 72.8433 74.6434C72.7923 74.9015 72.7413 75.1274 72.6733 75.3372C72.3503 76.2407 72.0358 77.1604 71.7298 78.0478C71.1773 79.6533 70.6163 81.3071 69.9703 82.9125C69.8768 83.1465 69.7748 83.3885 69.6813 83.6305C68.9077 85.5425 68.0322 87.7046 68.0747 89.7698C68.0747 89.8182 68.0492 89.8505 68.0067 89.8505Z" fill="white"/>
<path d="M64.9898 83.8722C66.2308 87.5913 67.4888 90.1325 67.4888 90.1325C67.4888 90.1325 71.7729 50.3197 65.1853 61.1946C65.6868 63.9698 66.9448 66.5514 66.5623 69.5686C65.9248 74.2639 65.2108 79.0882 64.9898 83.8722Z" fill="#00DEE1"/>
<path d="M64.9897 83.8724C65.2107 79.0965 65.9247 74.2641 66.5707 69.5688C66.9532 66.5597 65.6952 63.9781 65.1937 61.1948C64.8877 61.7031 64.5562 62.3243 64.1992 63.0584C61.1476 69.3671 63.0431 78.0558 64.9897 83.8724Z" fill="#00E8EA"/>
<path d="M66.7491 87.0023C66.7236 87.0023 66.6896 86.9862 66.6811 86.962C65.8821 85.0097 65.9246 82.6782 65.9586 80.621C65.9671 80.3628 65.9671 80.1047 65.9671 79.8546C65.9841 78.1362 65.9161 76.4017 65.8566 74.7156C65.8226 73.7798 65.7886 72.8117 65.7631 71.8597C65.7546 71.65 65.7206 71.4322 65.6781 71.174C65.4826 70.0204 65.1596 68.1003 66.9616 63.0582C66.9701 63.0259 67.0126 63.0017 67.0551 63.0178C67.0891 63.0259 67.1146 63.0662 67.0976 63.1066C65.3041 68.1164 65.6271 70.0204 65.8141 71.1579C65.8566 71.4241 65.8991 71.65 65.8991 71.8678C65.9246 72.8198 65.9586 73.7879 65.9926 74.7237C66.0606 76.4098 66.1201 78.1523 66.1031 79.8707C66.1031 80.1208 66.0946 80.379 66.0946 80.6452C66.0606 82.6943 66.0181 85.0097 66.8086 86.9378C66.8256 86.9701 66.8086 87.0104 66.7661 87.0265C66.7661 87.0023 66.7576 87.0023 66.7491 87.0023Z" fill="white"/>
<path d="M67.2943 90.2857C67.2943 90.2857 75.5478 79.4188 78.0639 81.9843C80.5799 84.5497 67.2943 90.2857 67.2943 90.2857Z" fill="#03BCE1"/>
<path d="M67.2931 90.3743C67.2676 90.3743 67.2506 90.3663 67.2336 90.3501C67.2081 90.3179 67.2166 90.2775 67.2506 90.2533L77.4932 82.9442C77.5272 82.92 77.5697 82.9281 77.5953 82.9604C77.6208 82.9927 77.6122 83.033 77.5782 83.0572L67.3356 90.3582C67.3271 90.3663 67.3101 90.3743 67.2931 90.3743Z" fill="white"/>
<path d="M72.0868 89.2856H62.5752C62.5752 89.2856 60.7647 94.9974 61.2407 99.7007C61.7167 104.404 65.2017 103.855 65.2017 103.855H67.2673H67.3948H69.4603C69.4603 103.855 72.9453 104.396 73.4213 99.7007C73.8973 94.9974 72.0868 89.2856 72.0868 89.2856Z" fill="#3958D7"/>
<g opacity="0.42">
<g opacity="0.42">
<path opacity="0.42" d="M63.9948 104.162L64.5048 103.984C67.2418 103.008 70.1659 102.363 73.0219 101.758C69.4859 101.887 65.9413 102.363 62.5073 102.831L62.4733 102.702C66.4683 101.556 70.7099 101.016 74.8324 100.515C74.0504 100.443 73.2599 100.483 72.5119 100.532C68.5254 100.806 64.1988 101.524 59.2773 102.71L59.2433 102.581C64.0968 101.282 69.0949 100.265 74.1354 99.5474C68.6614 99.6684 63.2383 100.645 57.9852 101.588L57.4667 101.677L57.9427 101.459C58.7333 101.088 59.6173 100.878 60.5353 100.669C63.2553 100.056 66.0263 99.5312 68.8144 99.1117C65.6013 99.3053 62.3968 99.5796 59.2263 99.9265L59.2008 99.7975C60.8838 99.3134 62.5753 98.9262 64.3008 98.6115C63.9693 98.6277 63.6378 98.6438 63.3063 98.6599C61.9038 98.8213 60.5948 99.023 59.3368 99.2811C58.8013 99.3941 58.2572 99.5151 57.7217 99.6361L57.6877 99.507C58.2147 99.3779 58.7588 99.2569 59.3028 99.1521C60.0253 98.9988 60.7563 98.8536 61.4873 98.7164C61.0198 98.7245 60.5608 98.7245 60.1018 98.7164L59.5918 98.7084L60.0848 98.5793C64.9553 97.3288 70.1574 96.8206 75.2659 97.0868C75.5039 97.0787 75.7419 97.0626 75.9799 97.0545C72.6734 96.8367 69.3414 96.6996 66.0178 96.635C65.0403 96.7318 64.0118 96.8206 62.9238 96.9093C61.2153 97.0465 59.6768 97.1433 58.1637 96.8609L57.8492 96.8044L58.1552 96.7318C59.1583 96.4898 60.2123 96.4737 61.3853 96.4656C62.9238 96.4575 64.4708 96.4737 66.0093 96.4979C69.0014 96.2074 71.5429 95.8686 73.9229 95.4572C72.7159 95.4894 71.5089 95.5056 70.3274 95.5056C67.5223 95.8283 64.7003 96.0784 61.8868 96.2316C60.9688 96.28 60.1443 96.3123 59.3538 96.1268L59.0988 96.0703L59.3538 95.9977C59.7958 95.8767 60.2633 95.7879 60.7138 95.7315C60.1953 95.7395 59.6853 95.7234 59.1753 95.6831C58.7758 95.6508 58.3337 95.5863 58.0702 95.32L58.0022 95.2555L58.0872 95.2151C58.7502 94.9005 59.5408 94.8763 60.3653 94.8763C61.8103 94.8763 63.2808 94.9005 64.7003 94.9328C65.5248 94.9489 66.3493 94.9651 67.1738 94.9731C69.3584 94.6585 71.5259 94.2551 73.6594 93.7711C72.0104 93.8114 70.3444 93.7388 68.7209 93.6581C68.5084 93.6501 68.2874 93.6339 68.0749 93.6259C65.6268 93.9082 63.1618 94.0857 60.7393 94.2632C60.3313 94.2955 60.0763 94.2148 59.9913 94.0373L59.9743 93.997L60.0083 93.9647C60.2123 93.763 60.5438 93.6985 60.8328 93.6581C63.2213 93.3112 65.6778 93.3838 68.0749 93.4968C69.8259 93.2951 71.5769 93.0369 73.2939 92.682C72.7839 92.7142 72.2994 92.7304 71.8659 92.7304C71.8574 92.7304 71.8404 92.7304 71.8319 92.7304C70.1064 92.7304 68.3554 92.5932 66.6553 92.4561C65.5588 92.3673 64.4453 92.2786 63.3233 92.2302C62.5753 92.2867 61.8273 92.3351 61.0708 92.3673C60.3653 92.3996 59.6683 92.4158 58.9798 92.2947L58.4952 92.206L58.9798 92.1576C60.4163 92.0204 61.8613 92.0204 63.3063 92.085C65.6438 91.8994 67.9644 91.5767 70.2509 91.125C66.8763 91.2218 63.5358 90.6409 60.2888 90.0762C60.1783 90.0601 60.0083 89.9875 59.9658 89.8745C59.9488 89.8261 59.9573 89.7696 59.9998 89.7293C60.0253 89.7051 60.0678 89.697 60.1018 89.7293C60.1273 89.7535 60.1358 89.7938 60.1018 89.8261C60.0933 89.8342 60.0933 89.8342 60.0933 89.8342C60.0933 89.8584 60.1868 89.9229 60.3058 89.9471C63.8248 90.5602 67.4543 91.1895 71.0924 90.9555C71.7639 90.8103 72.4269 90.6651 73.0899 90.4957L73.4214 90.415L73.1494 90.6167C72.7244 90.9313 72.1294 91.012 71.6024 91.0524C71.4409 91.0685 71.2794 91.0766 71.1094 91.0927C68.8569 91.5687 66.5618 91.9236 64.2498 92.1415C65.0573 92.1899 65.8563 92.2544 66.6468 92.3189C68.3384 92.4561 70.0894 92.5932 71.8149 92.5932C71.8234 92.5932 71.8404 92.5932 71.8489 92.5932C72.6819 92.5932 73.7019 92.561 74.7219 92.3673C75.0364 92.2947 75.3509 92.2141 75.6569 92.1334L75.6994 92.2625C75.3849 92.3593 75.0704 92.44 74.7559 92.4964C72.8264 92.9563 70.8544 93.287 68.8739 93.5371C70.6759 93.6259 72.5289 93.7065 74.3394 93.6178C75.0789 93.4403 75.8099 93.2548 76.5409 93.0611L76.83 92.9805L76.6089 93.1741C76.1244 93.5936 75.3764 93.6904 74.6454 93.7388C74.5519 93.7469 74.4584 93.7469 74.3649 93.7549C72.2824 94.2551 70.1659 94.6666 68.0324 94.9973C70.6589 95.0135 73.3024 94.957 75.8949 94.6182L75.9119 94.7553C74.4414 94.9893 72.9709 95.1909 71.4834 95.3765C72.5969 95.3684 73.7274 95.3442 74.8494 95.2958C75.5889 95.1587 76.3539 95.0457 77.102 95.1587L77.6545 95.2474L77.0935 95.2958C76.3539 95.3604 75.6144 95.4007 74.8664 95.433C74.8154 95.441 74.7644 95.4491 74.7049 95.4652L74.6369 95.4814C72.3334 95.9009 69.9109 96.2397 67.0888 96.5382C70.4889 96.6189 73.8889 96.7802 77.255 97.0223V97.1594C77 97.1675 76.7535 97.1755 76.4984 97.1836C76.8215 97.2078 77.1445 97.2401 77.4675 97.2643V97.4014C74.2544 97.6112 71.2964 97.8209 68.4914 98.1517C69.4264 98.1114 70.4039 98.0872 71.4239 98.0791C71.5344 98.0791 71.6449 98.0791 71.7554 98.0791C72.3674 98.0549 72.9709 98.0387 73.5829 98.0387C74.2459 98.0307 74.9514 98.0387 75.6229 98.1598C76.9065 98.2404 78.1815 98.3856 79.431 98.6519L80.043 98.781H79.414C76.4049 98.7971 73.3789 98.8858 70.3614 99.0472C67.0548 99.499 63.7738 100.096 60.5523 100.822C59.8638 100.975 59.2008 101.137 58.5717 101.363C63.9863 100.394 69.5709 99.4263 75.2064 99.4183L75.2149 99.5554C71.4494 100.056 67.6923 100.725 64.0033 101.564C67.0293 100.983 69.8344 100.604 72.4864 100.427C73.4129 100.362 74.3989 100.314 75.3679 100.475L75.8269 100.556L75.3679 100.612C71.4239 101.088 67.3523 101.58 63.4763 102.589C66.8423 102.137 70.3019 101.701 73.7614 101.629L73.7784 101.758C70.8799 102.363 67.8794 102.992 65.0658 103.952L74.1524 103.089C74.1864 103.089 74.2289 103.113 74.2289 103.145C74.2289 103.186 74.2034 103.218 74.1694 103.218L63.9948 104.162ZM65.4823 98.5551C63.6123 98.8536 61.7933 99.2247 59.9998 99.7168C63.4253 99.3537 66.8848 99.0795 70.3444 98.902C72.1209 98.6599 73.9059 98.4583 75.6909 98.2969C75.6569 98.2888 75.6314 98.2888 75.5974 98.2808C74.3054 98.2001 73.0134 98.192 71.7554 98.2001C70.2764 98.2566 68.8059 98.3453 67.3608 98.4421C66.7403 98.4825 66.1113 98.5228 65.4823 98.5551ZM76.3964 98.3372L76.4814 98.3614L76.1159 98.3937C74.7474 98.5147 73.3789 98.6519 72.0189 98.8213C74.2629 98.7245 76.507 98.6599 78.7425 98.6438C77.969 98.5067 77.187 98.4099 76.3964 98.3372ZM60.6203 98.5873C61.1813 98.5873 61.7423 98.5793 62.3033 98.5631C66.0943 97.8855 69.9449 97.4176 73.8124 97.1755C69.3584 97.0707 64.8703 97.5466 60.6203 98.5873ZM75.2489 97.232C71.2284 97.4337 67.2163 97.8693 63.2723 98.5389H63.2808C64.3773 98.4099 65.5248 98.313 66.7488 98.2404C69.8174 97.8129 73.0474 97.5547 76.5834 97.3207C76.1329 97.2804 75.6909 97.2562 75.2489 97.232ZM58.5122 96.7964C59.8978 97.0061 61.3173 96.9174 62.8898 96.7883C63.5358 96.7318 64.1648 96.6834 64.7683 96.6269C63.6293 96.6108 62.4988 96.6027 61.3598 96.6108C60.3398 96.6108 59.4048 96.635 58.5122 96.7964ZM59.6598 96.0703C60.3483 96.1832 61.0623 96.159 61.8613 96.1106C64.2583 95.9735 66.6638 95.7799 69.0609 95.5217C66.6298 95.5298 64.1393 95.554 61.6913 95.7718C61.0283 95.8363 60.3313 95.9089 59.6598 96.0703ZM58.2402 95.312C58.4782 95.4894 58.8438 95.5378 59.1753 95.5701C60.5438 95.675 61.9463 95.5782 63.2468 95.4572C64.2668 95.3604 65.2783 95.2474 66.2898 95.1183C65.7543 95.1103 65.2188 95.1022 64.6918 95.0861C63.2723 95.0538 61.8018 95.0296 60.3568 95.0296C59.5918 95.0296 58.8523 95.0538 58.2402 95.312ZM67.1823 95.1264C66.2898 95.2555 65.3888 95.3684 64.4963 95.4652C66.1963 95.4007 67.8964 95.3926 69.5624 95.3846C69.8089 95.3846 70.0554 95.3846 70.3104 95.3846C71.3049 95.2716 72.2909 95.1425 73.2769 95.0054C71.2454 95.1425 69.1969 95.1506 67.1823 95.1264ZM60.1443 94.0373C60.2463 94.1583 60.5183 94.1664 60.7308 94.1502C62.8728 93.997 65.0403 93.8356 67.1993 93.6097C65.0828 93.521 62.9408 93.5048 60.8498 93.8114C60.5948 93.8437 60.3143 93.8921 60.1443 94.0373ZM76.1754 93.3032C75.8354 93.3919 75.5039 93.4806 75.1639 93.5613C75.5294 93.521 75.8779 93.4484 76.1754 93.3032ZM59.6683 92.2544C60.1188 92.2786 60.5863 92.2705 61.0538 92.2463C61.3598 92.2302 61.6573 92.2141 61.9633 92.1979C61.1983 92.1899 60.4333 92.206 59.6683 92.2544Z" fill="#00DEE1"/>
</g>
</g>
<path d="M69.8769 29.9731C69.8769 29.9731 69.3839 28.8598 68.7463 28.5613C68.1088 28.2628 67.8283 28.1337 68.0323 28.4645C68.2363 28.7953 68.8823 29.3358 68.9758 29.6343C69.0694 29.9328 68.2193 29.8521 68.2023 30.4249C68.1768 30.9977 68.7548 31.6511 69.4774 32.119C70.1999 32.587 70.6759 32.2562 71.3474 33.2081C72.0189 34.1601 72.7159 33.4744 72.7159 33.4744C72.7159 33.4744 71.1944 32.7886 70.8374 31.9416C70.4719 31.0945 70.3104 30.2474 69.8769 29.9731Z" fill="url(#paint11_linear)"/>
<path d="M74.7985 39.0811C76.6685 41.3158 78.785 43.3568 81.3096 44.9219C83.4091 46.2288 84.7946 46.0594 86.5201 42.5582C87.6421 40.2831 87.2256 36.9352 88.0586 34.765C88.4581 33.7163 87.5826 32.8692 86.1291 33.2725C85.1091 34.3859 84.5566 35.3781 84.0806 36.5076C83.8426 37.0723 83.5961 37.629 83.3241 38.1775C83.0946 38.6293 82.8311 39.428 82.2786 39.5893C82.0661 39.6539 81.8281 39.6055 81.6156 39.5409C80.7571 39.2586 80.094 38.6535 79.414 38.1049C78.0625 37.0239 76.5665 36.1284 75.181 35.0877C73.8635 34.1035 72.5885 33.0547 71.373 31.9495C70.8205 31.4412 70.4125 32.014 70.3359 32.5384C70.2509 33.1515 70.829 33.6356 71.1435 34.1116C72.274 35.8138 73.4725 37.4999 74.7985 39.0811Z" fill="url(#paint12_linear)"/>
<path d="M115.208 46.6563C115.752 46.5998 116.296 46.6079 116.823 46.6724C117.197 46.7127 117.571 46.7853 117.962 46.7208C118.259 46.6643 118.557 46.5272 118.863 46.5191C119.084 46.511 119.296 46.5837 119.526 46.5756C119.585 46.5756 119.662 46.5595 119.687 46.503C119.721 46.4304 119.653 46.3739 119.585 46.3416C119.254 46.1884 118.871 46.1238 118.489 46.1561C118.506 46.0835 118.599 46.0431 118.676 46.0351C119.041 45.9705 119.407 45.9544 119.764 45.9867C120.308 46.0431 120.835 46.2126 121.396 46.1319C121.421 46.0673 121.362 46.0189 121.311 45.9867C120.605 45.6317 119.832 45.3977 119.058 45.1638C118.786 45.0831 118.514 45.0024 118.225 45.0024C117.775 45.0105 117.333 45.2041 116.891 45.3413C116.729 45.3897 116.568 45.43 116.415 45.4139C116.262 45.3977 116.126 45.3251 115.973 45.2929C115.718 45.2364 115.42 45.2848 115.199 45.1557C115.165 45.1315 115.123 45.1073 115.08 45.1073C114.987 45.1073 114.919 45.2203 114.885 45.3171C114.715 45.8334 114.766 46.3981 115.029 46.8176" fill="url(#paint13_linear)"/>
<path d="M112.624 46.8338C109.232 46.8338 105.9 46.2772 103.197 45.0186C100.316 43.6794 98.318 41.5254 96.5755 39.2262C95.3005 37.8063 92.6569 31.6912 94.3654 30.3682C95.853 31.5944 96.975 33.3612 98.3945 34.7004C100.095 36.2816 101.489 37.5643 103.308 39.1133C105.271 40.7913 108.025 42.4693 110.516 43.5826C112.097 44.3087 113.822 44.8573 115.701 45.188C116.559 45.3333 115.837 46.1158 115.089 46.5434C114.205 47.0516 113.38 46.8338 112.624 46.8338Z" fill="url(#paint14_linear)"/>
<path d="M122.254 82.9595L125.187 85.4684L125.578 88.3001L121.345 85.0086L122.254 82.9595Z" fill="url(#paint15_linear)"/>
<path d="M125.314 86.4928C125.237 86.2266 125.093 85.9846 124.88 85.8152C124.753 85.7103 124.6 85.6377 124.464 85.5409C124.328 85.4441 124.2 85.323 124.158 85.1698C124.141 85.1133 124.132 85.0488 124.149 84.9923C124.183 84.8955 124.285 84.8309 124.387 84.8148C124.489 84.7987 124.6 84.8229 124.702 84.8471C124.94 84.9035 125.169 84.9681 125.382 85.0891C125.594 85.2101 125.773 85.3876 125.849 85.6135C125.926 85.8313 125.9 86.0733 125.883 86.3073C125.866 86.5896 125.849 86.8639 125.798 87.1382C125.764 87.3238 125.705 87.5093 125.611 87.6787C125.577 87.7352 125.441 88.0095 125.339 87.9611C125.212 87.9046 125.373 87.3157 125.382 87.2028C125.399 86.9607 125.382 86.7187 125.314 86.4928Z" fill="#0A0652"/>
<path d="M126.436 83.7257C126.606 83.6853 126.827 83.6692 126.912 83.8144C126.955 83.887 126.946 83.9677 126.946 84.0564C126.895 85.3553 127.533 86.5654 128.196 87.6707C128.867 88.784 129.598 89.9053 129.777 91.1881C129.836 91.6318 129.836 92.0835 129.819 92.5353C129.811 92.6563 129.794 92.8015 129.683 92.8419C129.641 92.858 129.598 92.858 129.556 92.858C129.683 92.8903 129.819 92.9064 129.955 92.9226C130.006 92.9306 130.066 92.9306 130.117 92.9145C130.227 92.8661 130.253 92.7209 130.253 92.5999C130.27 92.14 130.27 91.6802 130.202 91.2284C130.015 89.9215 129.675 88.671 129.003 87.5416C128.748 87.1221 128.544 86.6703 128.425 86.1943C128.272 85.5812 128.298 84.9277 128.17 84.3065C128.119 84.0806 128.068 83.6692 127.864 83.5159C127.609 83.3304 127.082 83.5482 126.81 83.6208C126.666 83.6531 126.53 83.7015 126.394 83.7499C126.411 83.7337 126.419 83.7257 126.436 83.7257Z" fill="#0A0652"/>
<path d="M124.124 84.9766C124.473 85.0815 124.838 85.2025 125.11 85.4445C125.433 85.7268 125.595 86.1625 125.629 86.5901C125.663 86.945 125.62 87.3081 125.569 87.6711C125.433 87.6227 125.289 87.5743 125.144 87.542C124.906 87.4855 124.651 87.4694 124.43 87.5582C124.226 87.5501 124.014 87.5824 123.861 87.7114C123.801 87.7598 123.742 87.8486 123.776 87.9131C123.793 87.9454 123.818 87.9615 123.844 87.9857C124.048 88.139 124.252 88.3165 124.473 88.4456C124.626 88.5343 124.796 88.5908 124.957 88.6715C125.433 88.9296 125.875 89.2362 126.351 89.4863C126.683 89.696 127.014 89.9139 127.286 90.1881C127.779 90.6883 128.068 91.3418 128.34 91.9791C128.451 92.2292 128.57 92.4954 128.791 92.6487C128.995 92.7939 129.258 92.8262 129.513 92.8504C129.53 92.8504 129.539 92.8504 129.556 92.8504C129.598 92.8504 129.641 92.8504 129.683 92.8343C129.794 92.7859 129.819 92.6406 129.819 92.5277C129.836 92.0759 129.845 91.6241 129.777 91.1804C129.598 89.8977 128.859 88.7763 128.196 87.663C127.524 86.5497 126.895 85.3396 126.946 84.0488C126.946 83.9681 126.955 83.8794 126.912 83.8068C126.827 83.6616 126.606 83.6696 126.436 83.7181C126.428 83.7181 126.411 83.7261 126.402 83.7261C125.552 83.9601 124.762 84.3877 124.124 84.9766Z" fill="url(#paint16_linear)"/>
<path d="M127.133 90.1149C127.108 90.1149 127.074 90.1068 127.057 90.0826C127.014 90.0423 127.023 89.9777 127.065 89.9374C127.091 89.9132 127.108 89.8648 127.125 89.8245C127.176 89.6954 127.218 89.5663 127.244 89.4372C127.269 89.3001 127.269 89.1791 127.235 89.0742C127.218 89.0177 127.252 88.9613 127.303 88.9451C127.363 88.929 127.422 88.9612 127.439 89.0096C127.482 89.1468 127.49 89.3001 127.456 89.4776C127.431 89.6228 127.371 89.7599 127.32 89.8971C127.295 89.9535 127.269 90.0342 127.201 90.0907C127.184 90.1068 127.159 90.1149 127.133 90.1149Z" fill="#ECF2FE"/>
<path d="M126.462 89.663C126.453 89.663 126.436 89.663 126.428 89.6549C126.368 89.6388 126.343 89.5823 126.36 89.5259C126.462 89.2193 126.581 88.8805 126.53 88.5497C126.521 88.4932 126.564 88.4448 126.615 88.4368C126.674 88.4206 126.725 88.469 126.734 88.5174C126.793 88.8966 126.666 89.2758 126.555 89.5823C126.547 89.6307 126.504 89.663 126.462 89.663Z" fill="#ECF2FE"/>
<path d="M125.552 89.0094C125.535 89.0094 125.518 89.0094 125.501 88.9932C125.45 88.969 125.433 88.9045 125.458 88.8561C125.577 88.6544 125.645 88.485 125.688 88.3317C125.739 88.1381 125.747 87.9525 125.705 87.7912C125.688 87.7347 125.722 87.6782 125.781 87.6702C125.841 87.654 125.9 87.6863 125.909 87.7428C125.96 87.9364 125.96 88.1542 125.892 88.3801C125.841 88.5576 125.764 88.727 125.645 88.9529C125.628 88.9932 125.594 89.0094 125.552 89.0094Z" fill="#ECF2FE"/>
<path d="M127.533 88.6546C127.584 88.4771 127.728 88.1706 127.966 88.2351C128.043 88.2512 128.094 88.3158 128.136 88.3803C128.238 88.5497 128.332 88.7272 128.561 88.7192C128.587 88.7192 128.629 88.7111 128.638 88.6869C128.646 88.6708 128.638 88.6466 128.629 88.6304C128.442 88.2835 128.281 87.9366 128.085 87.5978C127.873 87.2186 127.635 86.8556 127.448 86.4603C127.252 86.065 127.125 85.6374 126.997 85.2179C126.887 84.8468 126.751 84.4757 126.742 84.0804C126.742 84.0239 126.742 83.9674 126.708 83.919C126.649 83.8384 126.513 83.8464 126.419 83.8626C126.088 83.9352 125.765 84.1127 125.476 84.2982C125.399 84.3466 125.314 84.395 125.331 84.4918C125.34 84.5806 125.408 84.6532 125.476 84.7097C125.697 84.9033 125.943 85.0646 126.164 85.2663C126.436 85.5164 126.657 85.8149 126.691 86.1941C126.717 86.5168 126.564 86.791 126.394 87.0573C126.258 87.267 126.096 87.4606 125.901 87.622C125.875 87.6462 125.85 87.6623 125.841 87.6946C125.824 87.743 125.85 87.8075 125.901 87.8317C125.952 87.8559 126.011 87.8479 126.062 87.8317C126.113 87.8156 126.156 87.7753 126.207 87.7349C126.334 87.6301 126.462 87.5252 126.589 87.4284C126.623 87.3961 126.674 87.3638 126.717 87.3719C126.921 87.4042 126.844 87.8075 126.81 87.9205C126.768 88.0496 126.708 88.1786 126.666 88.3077C126.657 88.34 126.64 88.3723 126.649 88.4045C126.657 88.4368 126.666 88.4691 126.7 88.4852C126.734 88.5013 126.768 88.4933 126.802 88.4771C126.929 88.4207 127.023 88.3077 127.082 88.1867C127.15 88.0496 127.159 87.8479 127.278 87.7511C127.456 87.5978 127.516 88.0738 127.507 88.1464C127.482 88.34 127.388 88.5094 127.354 88.703C127.346 88.7434 127.346 88.7918 127.354 88.8402C127.363 88.8563 127.371 88.8805 127.38 88.8886C127.397 88.9047 127.431 88.9128 127.456 88.8966C127.507 88.8563 127.516 88.7192 127.533 88.6546Z" fill="#FFB900"/>
<path d="M92.8694 51.0774C92.7164 61.0729 104.778 76.9496 121.719 85.9529C122.22 86.2191 122.467 85.3075 122.577 85.0574C122.679 84.8235 122.866 84.4443 123.036 84.2345C123.419 83.7828 123.317 83.4923 122.832 82.9679C122.416 82.5162 121.804 81.5642 121.353 81.1528C120.656 80.5154 120.274 79.8943 119.611 79.2327C118.421 78.0468 117.248 76.8448 116.1 75.6266C114.222 73.6178 112.403 71.5606 110.72 69.3985C108.178 66.1312 106.036 62.6299 104.311 58.9189C102.67 55.3935 101.31 51.755 99.814 48.165C95.9805 49.7382 97.332 50.6256 92.8694 51.0774Z" fill="url(#paint17_linear)"/>
<path d="M89.1721 96.3926L88.5431 100.354L86.2311 102.29L86.8516 96.7556L89.1721 96.3926Z" fill="url(#paint18_linear)"/>
<path d="M87.1237 100.506C87.4127 100.498 87.7017 100.409 87.9397 100.24C88.0842 100.135 88.1947 100.006 88.3307 99.8931C88.4667 99.7802 88.6282 99.6834 88.7982 99.6753C88.8577 99.6753 88.9257 99.6834 88.9767 99.7156C89.0702 99.7721 89.1042 99.8931 89.0957 99.998C89.0872 100.103 89.0277 100.208 88.9767 100.305C88.8577 100.522 88.7217 100.74 88.5432 100.918C88.3647 101.095 88.1267 101.232 87.8802 101.257C87.6337 101.281 87.3957 101.192 87.1662 101.119C86.8857 101.031 86.6052 100.95 86.3332 100.829C86.1547 100.748 85.9762 100.643 85.8317 100.506C85.7807 100.458 85.5427 100.256 85.6192 100.167C85.7127 100.054 86.2737 100.361 86.3842 100.393C86.6137 100.466 86.8687 100.514 87.1237 100.506Z" fill="#0A0652"/>
<path d="M89.6482 102.298C89.6482 102.475 89.5972 102.701 89.4272 102.749C89.3422 102.774 89.2572 102.749 89.1722 102.725C87.8631 102.354 86.4436 102.685 85.1261 103.08C83.8086 103.467 82.4571 103.919 81.0886 103.79C80.6126 103.742 80.1535 103.629 79.703 103.5C79.584 103.467 79.4395 103.411 79.4225 103.29C79.414 103.25 79.431 103.201 79.4395 103.161C79.3715 103.282 79.312 103.411 79.261 103.54C79.2355 103.597 79.2185 103.645 79.227 103.701C79.244 103.822 79.3885 103.879 79.516 103.911C79.9835 104.04 80.4511 104.153 80.9356 104.202C82.3296 104.339 83.6981 104.315 85.0411 103.919C85.5426 103.774 86.0611 103.677 86.5796 103.677C87.2426 103.677 87.9141 103.863 88.5771 103.887C88.8236 103.895 89.2572 103.943 89.4782 103.774C89.7417 103.572 89.6567 102.991 89.6652 102.701C89.6652 102.556 89.6567 102.403 89.6482 102.257C89.6397 102.273 89.6482 102.282 89.6482 102.298Z" fill="#0A0652"/>
<path d="M89.0022 99.6917C88.7982 100.014 88.5771 100.345 88.2541 100.555C87.8716 100.805 87.3871 100.853 86.9366 100.789C86.5626 100.732 86.2056 100.603 85.8486 100.466C85.9421 100.337 86.0186 100.208 86.0951 100.071C86.2141 99.853 86.3076 99.5949 86.2736 99.3609C86.3416 99.1592 86.3586 98.9414 86.2736 98.7559C86.2396 98.6833 86.1716 98.6106 86.0866 98.6268C86.0526 98.6349 86.0271 98.6591 85.9931 98.6752C85.7806 98.8365 85.5426 98.9979 85.3556 99.1834C85.2196 99.3125 85.1176 99.4658 84.9901 99.6029C84.5991 100.006 84.1571 100.377 83.7746 100.789C83.4686 101.071 83.1541 101.346 82.7971 101.547C82.1511 101.91 81.4031 102.031 80.6721 102.152C80.3831 102.201 80.0856 102.249 79.8646 102.435C79.6606 102.604 79.5586 102.862 79.4566 103.104C79.4481 103.12 79.4481 103.128 79.4396 103.145C79.4226 103.185 79.4141 103.225 79.4226 103.274C79.4396 103.395 79.5841 103.451 79.7031 103.483C80.1621 103.612 80.6211 103.725 81.0886 103.774C82.4486 103.911 83.8001 103.459 85.1261 103.064C86.4436 102.677 87.8631 102.338 89.1722 102.709C89.2572 102.733 89.3422 102.757 89.4272 102.733C89.6057 102.685 89.6482 102.459 89.6482 102.281C89.6482 102.265 89.6482 102.257 89.6482 102.241C89.6482 101.362 89.4272 100.474 89.0022 99.6917Z" fill="url(#paint19_linear)"/>
<path d="M83.9021 101.983C83.7661 101.983 83.6216 101.951 83.4771 101.886C83.3326 101.821 83.2051 101.733 83.0861 101.652C83.0351 101.62 82.9586 101.563 82.9161 101.483C82.8906 101.434 82.9161 101.37 82.9671 101.345C83.0181 101.321 83.0861 101.345 83.1116 101.394C83.1286 101.426 83.1711 101.458 83.2136 101.483C83.3241 101.563 83.4431 101.644 83.5706 101.7C83.7066 101.757 83.8256 101.789 83.9446 101.781C84.0041 101.781 84.0551 101.821 84.0551 101.878C84.0636 101.934 84.0126 101.983 83.9531 101.983C83.9446 101.983 83.9191 101.983 83.9021 101.983Z" fill="#ECF2FE"/>
<path d="M84.6669 101.41H84.6584C84.2589 101.378 83.8934 101.152 83.6129 100.966C83.5619 100.934 83.5534 100.87 83.5874 100.829C83.6214 100.781 83.6894 100.773 83.7319 100.805C84.0124 100.982 84.3354 101.184 84.6754 101.208C84.7349 101.216 84.7774 101.265 84.7689 101.313C84.7689 101.37 84.7179 101.41 84.6669 101.41Z" fill="#ECF2FE"/>
<path d="M85.6532 100.781C85.4492 100.781 85.2282 100.724 85.0157 100.612C84.8542 100.523 84.6926 100.402 84.4971 100.224C84.4546 100.184 84.4546 100.119 84.4971 100.079C84.5396 100.039 84.6077 100.039 84.6502 100.079C84.8287 100.249 84.9732 100.353 85.1262 100.434C85.3047 100.531 85.4917 100.587 85.6702 100.579C85.7297 100.579 85.7807 100.62 85.7807 100.676C85.7807 100.733 85.7382 100.781 85.6787 100.781C85.6702 100.781 85.6617 100.781 85.6532 100.781Z" fill="#ECF2FE"/>
<path d="M84.3017 102.168C84.4717 102.257 84.7437 102.475 84.6077 102.701C84.5652 102.773 84.4887 102.806 84.4122 102.83C84.2082 102.894 84.0042 102.935 83.9447 103.169C83.9362 103.201 83.9362 103.233 83.9617 103.249C83.9787 103.257 84.0042 103.257 84.0212 103.249C84.4207 103.153 84.8287 103.072 85.2282 102.959C85.6702 102.838 86.1122 102.701 86.5712 102.604C87.0302 102.507 87.5062 102.483 87.9737 102.467C88.3817 102.451 88.7982 102.41 89.2062 102.491C89.2657 102.507 89.3252 102.515 89.3847 102.499C89.4867 102.459 89.5122 102.322 89.5207 102.225C89.5377 101.878 89.4442 101.507 89.3422 101.184C89.3167 101.095 89.2827 100.999 89.1807 100.99C89.0872 100.982 88.9937 101.031 88.9172 101.079C88.6622 101.249 88.4242 101.458 88.1607 101.62C87.8292 101.821 87.4637 101.975 87.0642 101.91C86.7242 101.854 86.4862 101.644 86.2652 101.41C86.0867 101.224 85.9337 101.015 85.8232 100.789C85.8062 100.756 85.7892 100.724 85.7637 100.708C85.7127 100.676 85.6447 100.692 85.6022 100.732C85.5597 100.773 85.5512 100.837 85.5597 100.894C85.5682 100.95 85.5937 101.007 85.6192 101.055C85.6872 101.208 85.7637 101.353 85.8317 101.507C85.8572 101.555 85.8742 101.604 85.8572 101.652C85.7722 101.846 85.3812 101.676 85.2707 101.612C85.1432 101.539 85.0327 101.45 84.9137 101.37C84.8882 101.353 84.8542 101.329 84.8202 101.321C84.7862 101.313 84.7437 101.321 84.7182 101.345C84.6927 101.37 84.6927 101.418 84.7012 101.45C84.7182 101.587 84.8117 101.708 84.9222 101.797C85.0412 101.902 85.2452 101.959 85.3132 102.104C85.4152 102.322 84.9137 102.265 84.8457 102.233C84.6587 102.16 84.5057 102.023 84.3187 101.942C84.2762 101.926 84.2252 101.91 84.1827 101.91C84.1657 101.91 84.1402 101.918 84.1232 101.926C84.0977 101.942 84.0892 101.975 84.0977 101.999C84.0977 102.096 84.2422 102.136 84.3017 102.168Z" fill="#FFB900"/>
<path d="M88.7216 51.5054L86.6136 97.8931H89.4186L98.8112 51.5699L88.7216 51.5054Z" fill="url(#paint20_linear)"/>
<path d="M89.2995 31.1833C89.495 31.1671 89.682 31.151 89.8775 31.1429C91.7815 31.0219 93.677 30.9009 95.581 30.7718C96.295 30.7234 97.0941 30.7073 97.6126 31.1752C96.7116 32.4579 96.6606 34.1037 96.7456 35.6445C97.0261 40.7916 98.4966 45.874 101.013 50.4402C101.31 50.9888 101.633 51.6584 101.285 52.1828C100.902 52.7717 100.001 52.7233 99.2871 52.6023C97.8251 52.3603 97.7146 51.7955 96.142 51.8843C93.9745 52.0053 91.8155 52.5861 89.6735 52.8927C89.376 52.9331 89.053 52.9734 88.798 52.8201C87.7269 52.1666 88.4325 49.9158 88.5515 48.98C88.7215 47.6731 88.764 46.35 88.6025 45.0431C88.203 41.8242 86.5879 38.8392 86.0949 35.6365C85.8909 34.2973 85.2619 33.6922 86.3669 32.8371C86.9874 32.3692 88.492 31.2559 89.2995 31.1833Z" fill="url(#paint21_linear)"/>
<path d="M88.4154 31.7233C88.4834 32.046 88.5344 32.0299 88.7299 32.3042C88.8999 32.5301 89.1209 32.7237 89.4099 32.8286C89.6904 32.9334 90.0389 32.9334 90.3109 32.8044C90.5149 32.7076 90.6594 32.5462 90.8124 32.3929C90.9994 32.1993 91.2034 32.0138 91.416 31.8443C91.535 31.7475 91.6625 31.6427 91.722 31.5055C91.7815 31.3684 91.7645 31.2232 91.739 31.086C91.654 30.4567 91.569 29.8275 91.4755 29.2063C91.433 28.8917 91.3905 28.577 91.348 28.2624C91.314 28.0042 91.3395 27.6089 91.2034 27.3911C90.1409 27.8429 89.5204 27.9397 88.5259 28.4883C88.3729 28.5528 88.4749 29.6581 88.4749 29.7952C88.4749 30.3761 88.2964 31.1667 88.4154 31.7233Z" fill="url(#paint22_linear)"/>
<path d="M93.2861 22.3248C93.4561 23.6398 93.1076 25.0436 92.3596 26.1811C91.2971 27.7865 89.2995 29.0289 87.3275 29.3596C85.143 29.7307 86.061 27.6574 84.973 27.125C83.885 26.5925 85.3555 25.8745 85.3895 24.0835C85.398 23.7044 85.517 21.2277 85.619 20.8566C86.1715 18.7832 89.3845 18.1056 91.1101 19.0656C92.4361 19.8078 93.1161 21.0179 93.2861 22.3248Z" fill="#FFCFCB"/>
<path d="M85.9673 24.3337C86.1033 24.3256 86.2394 24.3337 86.3754 24.4224C86.4009 24.4385 86.4774 24.5192 86.5029 24.5112C86.5369 24.5112 86.5454 24.4385 86.5199 24.4385C86.5539 24.4385 86.4009 24.1401 86.1118 24.1159C85.9333 24.0513 85.6443 24.0997 85.5508 24.2691C85.5423 24.2853 85.5338 24.3014 85.5423 24.3095C85.5508 24.3256 85.5763 24.3337 85.5933 24.3417C85.7293 24.3659 85.8483 24.3417 85.9673 24.3337Z" fill="#750114"/>
<path d="M85.7125 24.7696C85.755 24.7372 85.823 24.7453 85.8655 24.7777C85.976 24.8911 85.789 25.0369 85.67 24.9964C85.5595 24.964 85.5 24.8101 85.619 24.7453C85.6955 24.7048 85.7975 24.7291 85.874 24.7615" fill="#000614"/>
<path d="M86.3925 28.2709C86.333 28.3193 86.248 28.3597 86.1545 28.3677C85.976 28.3919 85.7805 28.3435 85.6275 28.2951C85.585 28.279 85.568 28.2386 85.5765 28.2064C85.5935 28.166 85.636 28.1499 85.67 28.158C85.806 28.1983 85.9845 28.2467 86.129 28.2225C86.231 28.2064 86.35 28.1499 86.367 28.0289C86.3755 27.9886 86.4095 27.9644 86.452 27.9644C86.4945 27.9724 86.52 28.0047 86.52 28.045C86.5115 28.1418 86.4605 28.2144 86.3925 28.2709Z" fill="#D77E8E"/>
<path opacity="0.31" d="M86.775 26.7865C86.605 27.0285 86.571 27.3592 86.6985 27.6255C86.826 27.8917 87.132 28.0773 87.438 28.0611C87.6166 28.0531 87.7866 27.9804 87.9396 27.8917C88.0841 27.803 88.2201 27.69 88.3136 27.5529C88.4836 27.2947 88.5006 26.9478 88.3391 26.6816C87.9736 26.0201 87.1405 26.2459 86.775 26.7865Z" fill="#D77E8E"/>
<path d="M107.405 30.2957C107.133 30.336 106.861 30.336 106.606 30.2554C106.521 30.2312 106.504 30.1101 106.589 30.0698C107.184 29.7713 107.804 29.5132 108.442 29.2953C108.042 29.2066 107.634 29.1743 107.226 29.2147C106.351 29.3034 105.288 29.8036 104.43 29.4083C103.648 29.0533 103.605 28.0529 102.84 27.6738C102.075 27.2946 100.936 27.5366 100.409 26.738C99.8907 25.9635 100.409 24.7211 99.3552 24.2613C98.8027 24.0192 98.1142 24.229 97.5787 23.9547C96.9582 23.6401 96.8137 22.8172 96.2187 22.4541C95.7767 22.1799 95.1817 22.2202 94.7481 21.9298C94.0086 21.4377 94.2126 20.163 93.3711 19.808C93.1416 19.7112 92.8781 19.7354 92.6316 19.7435C92.0621 19.7516 91.7476 19.3966 91.4416 18.9852C91.1611 18.6221 90.8891 18.2752 90.4896 18.0251C89.9116 17.654 89.1041 17.6298 88.4411 17.7589C88.0161 17.8396 87.5911 18.009 87.2086 18.2349C86.8516 18.4527 86.5116 18.9045 86.044 18.9045C85.483 18.9045 85.177 18.2994 84.8285 17.9767C84.378 17.5572 83.6215 17.646 83.1285 17.9525C81.879 18.7351 81.9385 20.397 82.7205 21.4699C83.1115 22.0024 83.749 22.4703 84.429 22.6962C84.514 22.7284 84.5225 22.8495 84.4375 22.8817C84.4375 22.8817 84.429 22.8817 84.429 22.8898C84.2845 22.9543 83.783 22.7365 83.8255 22.8898C83.936 23.277 84.395 23.4545 84.786 23.4545C85.143 23.4464 85.449 23.3174 85.772 23.2044C86.2566 23.0431 86.4606 23.632 86.9111 23.8579C87.3616 24.0918 88.3901 23.8417 88.4496 23.3577C88.6876 23.4303 88.4581 23.9305 88.2031 23.9547C88.3051 24.0273 88.5601 23.9789 88.7216 23.8902C88.7896 23.8579 88.8661 23.8821 88.8831 23.9547C88.9171 24.1806 88.9936 24.3903 89.1126 24.592C89.1551 24.6727 89.2826 24.6646 89.3081 24.5759L89.4696 24.0999C89.4866 24.0515 89.5376 24.0192 89.5886 24.0273C90.1751 24.1564 90.4046 24.9389 90.2006 25.4956C89.9881 26.0845 89.4866 26.5443 89.1976 27.101C88.6876 28.0771 88.8916 29.3034 89.5206 30.215C90.1496 31.1266 91.1441 31.772 92.1981 32.2077C92.4446 32.3045 92.6911 32.4013 92.9121 32.5384C92.9291 32.5465 92.9376 32.5626 92.9461 32.5788C93.2351 33.0709 93.5326 33.5549 94.0511 33.7889C95.3092 34.3697 96.7202 33.0628 98.1142 33.2242C99.0747 33.3371 99.7802 34.1116 100.622 34.5795C101.514 35.0797 102.628 35.3782 103.682 35.4104C104.387 35.4346 105.212 35.3459 105.849 35.0393C106.07 34.9345 106.64 34.6198 106.512 34.3213C106.41 34.0874 104.345 33.9664 105.169 33.5307C106.597 32.7724 110.133 32.9257 110.839 31.2154C110.864 31.1508 110.813 31.0782 110.745 31.0782C110.643 31.0782 110.55 31.0863 110.448 31.0944C110.354 31.1105 110.295 30.9976 110.354 30.933C110.711 30.57 111.017 29.9407 111.034 29.61C111.043 29.3841 110.898 29.142 110.66 29.1178C110.524 29.1017 110.388 29.1663 110.269 29.2227C109.598 29.5454 108.901 29.8278 108.195 30.0779C107.949 30.1747 107.677 30.2554 107.405 30.2957Z" fill="url(#paint23_linear)"/>
<path d="M106.342 33.8052C106.096 34.0231 106.317 34.0311 106.478 34.0553C106.725 34.0876 106.903 34.136 107.141 34.2005C107.294 34.2409 107.515 34.2086 107.609 34.0634C107.269 34.0553 106.708 33.4906 106.342 33.8052Z" fill="url(#paint24_linear)"/>
<g opacity="0.31">
<g opacity="0.31">
<path opacity="0.31" d="M96.2612 25.2618C96.0572 25.4151 95.7852 25.4796 95.5132 25.4473C95.2667 25.4231 95.0627 25.3182 94.9352 25.165C94.8672 25.0843 94.8247 24.9955 94.7822 24.9149C94.7057 24.7777 94.6377 24.6486 94.5017 24.576C94.3572 24.5034 94.1787 24.5196 93.9917 24.5438C93.8642 24.5518 93.7367 24.568 93.6092 24.5518C93.2352 24.5115 92.9802 24.2775 92.7422 24.0517C92.5127 23.8338 92.3002 23.6321 91.9942 23.5918C91.7392 23.5515 91.4756 23.6321 91.2121 23.7048C91.1441 23.7209 91.0761 23.7451 91.0081 23.7612C90.7871 23.8177 90.2516 23.9226 89.9711 23.6321C89.7926 23.4466 89.8011 23.1965 89.8181 22.9464C89.8266 22.8335 89.8351 22.7125 89.8181 22.6076C89.8011 22.4946 89.7331 22.3575 89.6056 22.3414C89.5461 22.3333 89.4696 22.3494 89.3931 22.3656C89.1381 22.4382 88.8491 22.6237 88.5686 22.8012C88.1776 23.0513 87.8376 23.2691 87.6081 23.1481C87.5741 23.132 87.5571 23.0836 87.5741 23.0513C87.5911 23.019 87.6421 23.0029 87.6761 23.019C87.8291 23.0997 88.1521 22.8819 88.4751 22.6802C88.7641 22.4946 89.0616 22.301 89.3421 22.2284C89.4271 22.2042 89.5291 22.18 89.6226 22.1961C89.8351 22.2284 89.9456 22.4301 89.9626 22.5914C89.9796 22.7125 89.9711 22.8335 89.9626 22.9545C89.9456 23.1723 89.9371 23.3821 90.0731 23.5273C90.2941 23.7612 90.7701 23.6644 90.9571 23.616C91.0251 23.5999 91.0931 23.5757 91.1611 23.5595C91.4416 23.4789 91.7222 23.3982 92.0112 23.4385C92.3597 23.495 92.6062 23.7209 92.8442 23.9387C93.0822 24.1565 93.3032 24.3663 93.6262 24.3986C93.7367 24.4066 93.8557 24.3986 93.9747 24.3905C94.1787 24.3744 94.3912 24.3502 94.5697 24.4389C94.7482 24.5276 94.8332 24.689 94.9097 24.8423C94.9522 24.9229 94.9947 25.0036 95.0457 25.0682C95.1477 25.1892 95.3177 25.2779 95.5217 25.294C95.7512 25.3182 95.9892 25.2618 96.1592 25.1408C96.1932 25.1166 96.2442 25.1246 96.2697 25.1488C96.3037 25.1972 96.2952 25.2376 96.2612 25.2618Z" fill="url(#paint25_linear)"/>
</g>
<g opacity="0.31">
<path opacity="0.31" d="M92.6657 23.0999C92.6572 23.108 92.6487 23.108 92.6402 23.116C92.4107 23.1886 92.1472 23.108 91.8922 22.8821L91.8327 22.8256C91.6882 22.6885 91.5352 22.5513 91.3397 22.5352C91.2037 22.519 91.0592 22.5674 90.9147 22.6078C90.8722 22.6239 90.8297 22.632 90.7872 22.6481C90.6257 22.6885 90.3367 22.7449 90.1582 22.5836C90.0307 22.4706 90.0307 22.3093 90.0222 22.1641C90.0222 22.1157 90.0222 22.0673 90.0137 22.0269C89.9712 21.68 89.5717 21.4057 89.1042 21.3977C88.6877 21.3896 88.2457 21.559 87.8717 21.8898C87.5317 22.1883 87.3702 22.4222 87.1577 22.7772C87.1322 22.8095 87.0897 22.8256 87.0557 22.8014C87.0217 22.7853 87.0047 22.7369 87.0302 22.7046C87.2512 22.3416 87.4127 22.0915 87.7697 21.7768C88.1692 21.4299 88.6537 21.2363 89.1042 21.2444C89.6397 21.2525 90.1072 21.5913 90.1667 22.0027C90.1752 22.0511 90.1752 22.1076 90.1752 22.156C90.1752 22.277 90.1837 22.398 90.2602 22.4706C90.3877 22.5836 90.6427 22.5271 90.7447 22.5029C90.7872 22.4948 90.8297 22.4787 90.8637 22.4706C91.0252 22.4222 91.1867 22.3738 91.3567 22.39C91.6117 22.4142 91.7817 22.5755 91.9432 22.7207L92.0027 22.7772C92.1217 22.8821 92.3597 23.0515 92.5892 22.9789C92.6317 22.9627 92.6742 22.9869 92.6827 23.0273C92.6997 23.0515 92.6912 23.0838 92.6657 23.0999Z" fill="url(#paint26_linear)"/>
</g>
<g opacity="0.31">
<path opacity="0.31" d="M86.1462 23.0599C86.1292 23.0679 86.1122 23.076 86.0952 23.076C86.0527 23.076 86.0187 23.0437 86.0187 23.0034C86.0187 22.7775 86.0272 22.5355 85.9592 22.3177C85.8912 22.0837 85.7467 21.8982 85.5512 21.8094C85.4492 21.761 85.3387 21.7368 85.2197 21.7046C85.1007 21.6723 84.9732 21.6481 84.8627 21.5916C84.7097 21.519 84.5907 21.3657 84.5652 21.2205C84.5482 21.1076 84.5907 21.0108 84.6757 20.9381C84.7097 20.9139 84.7522 20.9139 84.7862 20.9462C84.8117 20.9785 84.8117 21.0188 84.7777 21.0511C84.7267 21.0914 84.7097 21.1479 84.7182 21.2044C84.7352 21.3012 84.8202 21.4141 84.9307 21.4625C85.0327 21.5109 85.1432 21.5351 85.2622 21.5674C85.3897 21.5997 85.5172 21.6239 85.6277 21.6804C85.8572 21.7933 86.0357 22.003 86.1122 22.2773C86.1802 22.5113 86.1802 22.7614 86.1802 23.0034C86.1802 23.0276 86.1632 23.0437 86.1462 23.0599Z" fill="url(#paint27_linear)"/>
</g>
<g opacity="0.31">
<path opacity="0.31" d="M86.1463 23.0595C86.1293 23.0756 86.1038 23.0837 86.0783 23.0756C86.0358 23.0676 86.0103 23.0272 86.0188 22.9869C86.0528 22.8578 86.1378 22.7852 86.2228 22.7207C86.3843 22.5916 86.5798 22.4383 86.4778 21.6638C86.4608 21.559 86.4268 21.4541 86.3843 21.3411C86.3333 21.1879 86.2738 21.0346 86.2823 20.8652C86.2908 20.5667 86.5288 20.2198 86.8858 20.1875C86.9283 20.1875 86.9623 20.2117 86.9708 20.252C86.9708 20.2924 86.9453 20.3246 86.9028 20.3327C86.6308 20.3569 86.4438 20.6312 86.4353 20.8732C86.4268 21.0184 86.4778 21.1475 86.5288 21.2927C86.5713 21.4057 86.6138 21.5186 86.6308 21.6477C86.7413 22.5029 86.5118 22.6965 86.3248 22.8336C86.2483 22.8901 86.1973 22.9385 86.1718 23.0192C86.1718 23.0353 86.1633 23.0514 86.1463 23.0595Z" fill="url(#paint28_linear)"/>
</g>
<g opacity="0.31">
<path opacity="0.31" d="M94.4848 32.2807L94.4763 32.2888C94.4423 32.313 94.3913 32.2968 94.3743 32.2646C94.1278 31.8773 93.7538 31.5627 93.3968 31.2561C93.2778 31.1593 93.1673 31.0625 93.0568 30.9576C92.4363 30.3929 92.1218 29.8766 92.1133 29.3764C92.1048 29.0537 92.2323 28.7552 92.3513 28.4729L92.3598 28.4567C92.4873 28.1582 92.5893 27.8839 92.5723 27.5854C92.5468 27.3112 92.3683 26.9723 92.0538 26.8674C92.0113 26.8513 91.9943 26.811 92.0113 26.7706C92.0283 26.7303 92.0708 26.7142 92.1133 26.7303C92.5043 26.8594 92.7083 27.2628 92.7338 27.5774C92.7593 27.9001 92.6403 28.2066 92.5128 28.5132L92.5043 28.5293C92.3853 28.7956 92.2663 29.0779 92.2748 29.3764C92.2833 29.8282 92.5808 30.3203 93.1673 30.8528C93.2778 30.9496 93.3883 31.0464 93.5073 31.1432C93.8728 31.4578 94.2553 31.7805 94.5103 32.1839C94.5188 32.2162 94.5103 32.2565 94.4848 32.2807Z" fill="url(#paint29_linear)"/>
</g>
<g opacity="0.31">
<path opacity="0.31" d="M104.668 32.1511C104.66 32.1592 104.651 32.1673 104.634 32.1673C104.116 32.2963 103.555 32.022 103.436 31.5864C103.427 31.5461 103.453 31.5057 103.487 31.4977C103.529 31.4896 103.572 31.5138 103.58 31.5461C103.682 31.901 104.167 32.135 104.592 32.022C104.634 32.014 104.677 32.0382 104.685 32.0704C104.702 32.1027 104.694 32.135 104.668 32.1511Z" fill="url(#paint30_linear)"/>
</g>
</g>
<g opacity="0.35">
<g opacity="0.35">
<path opacity="0.35" d="M87.4886 19.647C87.4716 19.6632 87.4376 19.6712 87.4121 19.6632C87.3696 19.647 87.3526 19.6067 87.3611 19.5664C87.4461 19.3163 87.5651 19.0662 87.7691 18.8968C87.8286 18.8484 87.8966 18.808 87.9646 18.7757C88.0411 18.7435 88.1261 18.7193 88.2111 18.7112C88.2536 18.7031 88.2877 18.7354 88.2962 18.7757C88.2962 18.8161 88.2707 18.8484 88.2282 18.8564C88.1601 18.8645 88.0921 18.8806 88.0241 18.9048C87.9646 18.929 87.9136 18.9613 87.8626 19.0016C87.6841 19.1468 87.5821 19.3808 87.4971 19.6067C87.5056 19.6228 87.4971 19.639 87.4886 19.647Z" fill="url(#paint31_linear)"/>
</g>
<g opacity="0.35">
<path opacity="0.35" d="M98.6239 30.0217C98.6154 30.0298 98.5984 30.0379 98.5814 30.0379C98.3264 30.0621 98.0544 29.9491 97.8589 29.7313C97.8249 29.691 97.7994 29.6587 97.7824 29.6345C97.7569 29.6022 97.7654 29.5538 97.7994 29.5296C97.8334 29.5054 97.8844 29.5135 97.9099 29.5458C97.9269 29.57 97.9524 29.5942 97.9694 29.6184C98.1394 29.812 98.3604 29.9088 98.5644 29.8846C98.6069 29.8846 98.6409 29.9088 98.6494 29.9491C98.6494 29.9895 98.6409 30.0137 98.6239 30.0217ZM97.2469 28.6584C97.2129 28.6826 97.1704 28.6826 97.1364 28.6503C96.8814 28.376 96.5499 28.134 96.1844 27.9726C96.1504 27.9565 96.1334 27.9081 96.1504 27.8758C96.1674 27.8435 96.2184 27.8274 96.2524 27.8435C96.6349 28.021 96.9834 28.263 97.2554 28.5615C97.2809 28.5857 97.2809 28.6342 97.2469 28.6584ZM95.1049 27.5773C95.0794 27.5935 95.0539 27.6015 95.0284 27.5854C94.8584 27.5128 94.7224 27.4321 94.6119 27.3353C94.5864 27.3111 94.5609 27.2869 94.5439 27.2627C94.3909 27.0933 94.3144 26.8997 94.2294 26.6738C94.2124 26.6334 94.2379 26.5931 94.2719 26.577C94.3144 26.5608 94.3569 26.585 94.3739 26.6173C94.4504 26.827 94.5354 27.0126 94.6629 27.1578C94.6799 27.182 94.7054 27.1981 94.7224 27.2223C94.8159 27.3111 94.9349 27.3837 95.0879 27.4402C95.1304 27.4563 95.1474 27.4966 95.1304 27.537C95.1219 27.5612 95.1219 27.5693 95.1049 27.5773ZM93.6259 25.8186C93.6004 25.8348 93.5749 25.8428 93.5494 25.8267C93.2094 25.6976 92.7759 25.6976 92.3679 25.7137C92.3254 25.7137 92.2914 25.6815 92.2914 25.6411C92.2914 25.6008 92.3254 25.5685 92.3679 25.5685C92.8014 25.5524 93.2519 25.5443 93.6174 25.6895C93.6599 25.7057 93.6769 25.746 93.6599 25.7863C93.6429 25.8025 93.6344 25.8106 93.6259 25.8186Z" fill="url(#paint32_linear)"/>
</g>
<g opacity="0.35">
<path opacity="0.35" d="M99.1509 32.3048C99.1509 32.3129 99.1424 32.3129 99.1509 32.3048C99.1169 32.329 99.0829 32.3451 99.0489 32.3613C99.0149 32.3774 98.9639 32.3693 98.9469 32.329C98.9299 32.2967 98.9384 32.2483 98.9809 32.2322C99.0064 32.216 99.0404 32.1999 99.0659 32.1838C99.0999 32.1596 99.1509 32.1676 99.1764 32.208C99.1849 32.2402 99.1764 32.2887 99.1509 32.3048ZM97.8674 32.4016C97.8504 32.4177 97.8164 32.4258 97.7909 32.4177C97.5784 32.3371 97.3829 32.2241 97.2044 32.0708C97.1619 32.0305 97.1109 31.9902 97.0769 31.9498C96.9664 31.8288 96.9069 31.7078 96.8984 31.5787C96.8984 31.5384 96.9239 31.5061 96.9664 31.498C97.0089 31.498 97.0429 31.5223 97.0514 31.5626C97.0599 31.6594 97.1024 31.7481 97.1959 31.853C97.2299 31.8934 97.2724 31.9256 97.3149 31.966C97.4764 32.1112 97.6634 32.216 97.8589 32.2887C97.9014 32.3048 97.9184 32.3451 97.9014 32.3855C97.8844 32.3855 97.8759 32.3935 97.8674 32.4016Z" fill="url(#paint33_linear)"/>
</g>
<g opacity="0.35">
<path opacity="0.35" d="M104.072 32.8777C104.064 32.8777 104.064 32.8857 104.055 32.8857C103.783 33.0067 103.503 33.0874 103.205 33.1278C103.095 33.1439 102.993 33.152 102.899 33.152C102.857 33.152 102.823 33.1197 102.823 33.0793C102.823 33.039 102.857 33.0067 102.899 33.0067C102.984 33.0067 103.078 32.9987 103.188 32.9825C103.469 32.9422 103.741 32.8696 103.996 32.7486C104.038 32.7324 104.081 32.7486 104.098 32.7809C104.106 32.8212 104.098 32.8535 104.072 32.8777ZM101.888 32.6114C101.862 32.6356 101.811 32.6356 101.786 32.6114L101.692 32.5308C101.42 32.2968 101.157 32.0709 100.825 31.9176C100.791 31.9015 100.774 31.8531 100.791 31.8208C100.808 31.7886 100.859 31.7724 100.893 31.7886C101.242 31.9499 101.522 32.1919 101.794 32.4259L101.888 32.5066C101.922 32.5227 101.922 32.5711 101.888 32.6114C101.888 32.6034 101.888 32.6034 101.888 32.6114Z" fill="url(#paint34_linear)"/>
</g>
<g opacity="0.35">
<path opacity="0.35" d="M109.13 30.5543C109.053 30.6188 108.968 30.6833 108.883 30.7479C108.849 30.7721 108.798 30.764 108.773 30.7398C108.747 30.7075 108.756 30.6672 108.781 30.6349C109.019 30.4575 109.24 30.2638 109.461 30.0783C109.495 30.0541 109.538 30.0541 109.572 30.0864C109.597 30.1186 109.597 30.159 109.563 30.1912C109.436 30.3122 109.283 30.4333 109.13 30.5543ZM107.846 31.3691C107.838 31.3771 107.838 31.3771 107.829 31.3771C107.787 31.3933 107.753 31.4094 107.71 31.4255C107.481 31.5143 107.302 31.5546 107.141 31.5627C106.911 31.5708 106.707 31.4982 106.588 31.3691C106.563 31.3368 106.563 31.2965 106.597 31.2642C106.631 31.24 106.673 31.24 106.707 31.2723C106.801 31.3691 106.962 31.4255 107.141 31.4175C107.294 31.4175 107.447 31.3771 107.659 31.2965C107.693 31.2803 107.736 31.2642 107.77 31.2481C107.812 31.2319 107.855 31.2481 107.872 31.2803C107.88 31.3126 107.872 31.3449 107.846 31.3691Z" fill="url(#paint35_linear)"/>
</g>
<g opacity="0.35">
<path opacity="0.35" d="M84.5222 21.3411C84.5137 21.3491 84.5052 21.3491 84.4967 21.3572C84.4117 21.3895 84.1907 21.3895 83.9952 21.3975H83.9527C83.8252 21.3975 83.7147 21.3572 83.6552 21.2846C83.6467 21.2765 83.6382 21.2685 83.6297 21.2604C83.5872 21.1958 83.5787 21.1152 83.5957 21.0103C83.6127 20.9377 83.6382 20.8732 83.6722 20.8086C83.6892 20.7683 83.7402 20.7602 83.7742 20.7763C83.8082 20.7925 83.8252 20.8409 83.8082 20.8732C83.7827 20.9296 83.7572 20.978 83.7487 21.0345C83.7317 21.099 83.7402 21.1474 83.7572 21.1797C83.7997 21.2281 83.8677 21.2523 83.9442 21.2523H83.9952C84.0972 21.2523 84.3777 21.2443 84.4457 21.2201C84.4882 21.2039 84.5307 21.2281 84.5477 21.2685C84.5562 21.2927 84.5477 21.3249 84.5222 21.3411Z" fill="url(#paint36_linear)"/>
</g>
</g>
<path d="M89.3419 24.0192C89.3419 24.0192 89.6479 23.3576 90.3024 24.0272C90.9569 24.7049 90.8039 25.8101 90.3109 25.8989C89.8264 25.9957 89.3504 26.0038 89.3504 26.0038L89.3419 24.0192Z" fill="#FFCFCB"/>
<defs>
<linearGradient id="paint0_linear" x1="91.7295" y1="99.7622" x2="92.4034" y2="14.0823" gradientUnits="userSpaceOnUse">
<stop stop-color="#CDDBFF"/>
<stop offset="1" stop-color="white"/>
</linearGradient>
<linearGradient id="paint1_linear" x1="31.6299" y1="46.8403" x2="66.9983" y2="47.5347" gradientUnits="userSpaceOnUse">
<stop stop-color="#BDCFFF"/>
<stop offset="0.1676" stop-color="#CDDBFF"/>
<stop offset="1" stop-color="white"/>
</linearGradient>
<linearGradient id="paint2_linear" x1="26.8256" y1="71.5908" x2="41.1136" y2="71.5908" gradientUnits="userSpaceOnUse">
<stop stop-color="#00DEE1"/>
<stop offset="1" stop-color="#00E8EA"/>
</linearGradient>
<linearGradient id="paint3_linear" x1="26.8242" y1="71.5913" x2="41.1121" y2="71.5913" gradientUnits="userSpaceOnUse">
<stop stop-color="#00DEE1"/>
<stop offset="1" stop-color="#00E8EA"/>
</linearGradient>
<linearGradient id="paint4_linear" x1="65.7748" y1="28.3798" x2="71.9174" y2="28.3798" gradientUnits="userSpaceOnUse">
<stop stop-color="#934DE6"/>
<stop offset="1" stop-color="#6229CE"/>
</linearGradient>
<linearGradient id="paint5_linear" x1="43.4879" y1="19.4428" x2="49.6305" y2="19.4428" gradientUnits="userSpaceOnUse">
<stop stop-color="#00DEE1"/>
<stop offset="1" stop-color="#00E8EA"/>
</linearGradient>
<linearGradient id="paint6_linear" x1="58.9828" y1="10.506" x2="65.1254" y2="10.506" gradientUnits="userSpaceOnUse">
<stop stop-color="#FF7A46"/>
<stop offset="1" stop-color="#FF5946"/>
</linearGradient>
<linearGradient id="paint7_linear" x1="110.798" y1="19.0129" x2="144.083" y2="41.5301" gradientUnits="userSpaceOnUse">
<stop stop-color="#BDCFFF"/>
<stop offset="0.1676" stop-color="#CDDBFF"/>
<stop offset="1" stop-color="white"/>
</linearGradient>
<linearGradient id="paint8_linear" x1="113.285" y1="27.375" x2="126.324" y2="27.375" gradientUnits="userSpaceOnUse">
<stop stop-color="#BDCFFF"/>
<stop offset="0.1676" stop-color="#CDDBFF"/>
<stop offset="1" stop-color="white"/>
</linearGradient>
<linearGradient id="paint9_linear" x1="123.49" y1="36.3618" x2="127.498" y2="12.2269" gradientUnits="userSpaceOnUse">
<stop stop-color="#BDCFFF"/>
<stop offset="0.1676" stop-color="#CDDBFF"/>
<stop offset="1" stop-color="white"/>
</linearGradient>
<linearGradient id="paint10_linear" x1="136.24" y1="55.7112" x2="109.735" y2="55.7112" gradientUnits="userSpaceOnUse">
<stop stop-color="#00DEE1"/>
<stop offset="1" stop-color="#00E8EA"/>
</linearGradient>
<linearGradient id="paint11_linear" x1="67.8543" y1="28.9316" x2="75.2964" y2="38.4683" gradientUnits="userSpaceOnUse">
<stop stop-color="#FFCFCB"/>
<stop offset="1" stop-color="#D77E8E"/>
</linearGradient>
<linearGradient id="paint12_linear" x1="70.3275" y1="38.7124" x2="88.1554" y2="38.7124" gradientUnits="userSpaceOnUse">
<stop stop-color="#DA22FF"/>
<stop offset="1" stop-color="#9733EE"/>
</linearGradient>
<linearGradient id="paint13_linear" x1="117.825" y1="45.9013" x2="115.909" y2="42.8741" gradientUnits="userSpaceOnUse">
<stop stop-color="#FFCFCB"/>
<stop offset="1" stop-color="#D77E8E"/>
</linearGradient>
<linearGradient id="paint14_linear" x1="93.8076" y1="38.6242" x2="116.09" y2="38.6242" gradientUnits="userSpaceOnUse">
<stop stop-color="#DA22FF"/>
<stop offset="1" stop-color="#9733EE"/>
</linearGradient>
<linearGradient id="paint15_linear" x1="123.255" y1="85.698" x2="126.011" y2="85.3844" gradientUnits="userSpaceOnUse">
<stop stop-color="#FFCFCB"/>
<stop offset="1" stop-color="#D77E8E"/>
</linearGradient>
<linearGradient id="paint16_linear" x1="125.057" y1="84.1281" x2="127.769" y2="93.405" gradientUnits="userSpaceOnUse">
<stop stop-color="#FF7A46"/>
<stop offset="1" stop-color="#FF5946"/>
</linearGradient>
<linearGradient id="paint17_linear" x1="113.652" y1="78.7308" x2="76.8272" y2="17.2865" gradientUnits="userSpaceOnUse">
<stop stop-color="#0A0652"/>
<stop offset="0.9851" stop-color="#310477"/>
</linearGradient>
<linearGradient id="paint18_linear" x1="87.2888" y1="98.841" x2="89.0515" y2="101.18" gradientUnits="userSpaceOnUse">
<stop stop-color="#FFCFCB"/>
<stop offset="1" stop-color="#D77E8E"/>
</linearGradient>
<linearGradient id="paint19_linear" x1="89.586" y1="100.967" x2="79.3277" y2="101.462" gradientUnits="userSpaceOnUse">
<stop stop-color="#FF7A46"/>
<stop offset="1" stop-color="#FF5946"/>
</linearGradient>
<linearGradient id="paint20_linear" x1="86.6159" y1="74.698" x2="98.8113" y2="74.698" gradientUnits="userSpaceOnUse">
<stop stop-color="#0A0652"/>
<stop offset="0.9851" stop-color="#310477"/>
</linearGradient>
<linearGradient id="paint21_linear" x1="85.7315" y1="41.839" x2="101.436" y2="41.839" gradientUnits="userSpaceOnUse">
<stop stop-color="#DA22FF"/>
<stop offset="1" stop-color="#9733EE"/>
</linearGradient>
<linearGradient id="paint22_linear" x1="90.9783" y1="33.7377" x2="88.5408" y2="22.539" gradientUnits="userSpaceOnUse">
<stop stop-color="#FFCFCB"/>
<stop offset="1" stop-color="#D77E8E"/>
</linearGradient>
<linearGradient id="paint23_linear" x1="82.157" y1="26.5511" x2="111.035" y2="26.5511" gradientUnits="userSpaceOnUse">
<stop stop-color="#005C97"/>
<stop offset="1" stop-color="#363795"/>
</linearGradient>
<linearGradient id="paint24_linear" x1="106.232" y1="33.9633" x2="107.609" y2="33.9633" gradientUnits="userSpaceOnUse">
<stop stop-color="#005C97"/>
<stop offset="1" stop-color="#363795"/>
</linearGradient>
<linearGradient id="paint25_linear" x1="87.5674" y1="23.8232" x2="96.2913" y2="23.8232" gradientUnits="userSpaceOnUse">
<stop stop-color="#005C97"/>
<stop offset="1" stop-color="#363795"/>
</linearGradient>
<linearGradient id="paint26_linear" x1="87.0179" y1="22.193" x2="92.6915" y2="22.193" gradientUnits="userSpaceOnUse">
<stop stop-color="#005C97"/>
<stop offset="1" stop-color="#363795"/>
</linearGradient>
<linearGradient id="paint27_linear" x1="84.5615" y1="21.9985" x2="86.1802" y2="21.9985" gradientUnits="userSpaceOnUse">
<stop stop-color="#005C97"/>
<stop offset="1" stop-color="#363795"/>
</linearGradient>
<linearGradient id="paint28_linear" x1="86.0172" y1="21.6332" x2="86.9708" y2="21.6332" gradientUnits="userSpaceOnUse">
<stop stop-color="#005C97"/>
<stop offset="1" stop-color="#363795"/>
</linearGradient>
<linearGradient id="paint29_linear" x1="92.0048" y1="29.5123" x2="94.5135" y2="29.5123" gradientUnits="userSpaceOnUse">
<stop stop-color="#005C97"/>
<stop offset="1" stop-color="#363795"/>
</linearGradient>
<linearGradient id="paint30_linear" x1="103.434" y1="31.8477" x2="104.694" y2="31.8477" gradientUnits="userSpaceOnUse">
<stop stop-color="#005C97"/>
<stop offset="1" stop-color="#363795"/>
</linearGradient>
<linearGradient id="paint31_linear" x1="87.359" y1="19.1881" x2="88.2962" y2="19.1881" gradientUnits="userSpaceOnUse">
<stop stop-color="#005C97"/>
<stop offset="1" stop-color="#363795"/>
</linearGradient>
<linearGradient id="paint32_linear" x1="92.2914" y1="27.8006" x2="98.6494" y2="27.8006" gradientUnits="userSpaceOnUse">
<stop stop-color="#005C97"/>
<stop offset="1" stop-color="#363795"/>
</linearGradient>
<linearGradient id="paint33_linear" x1="96.8984" y1="31.9595" x2="99.1796" y2="31.9595" gradientUnits="userSpaceOnUse">
<stop stop-color="#005C97"/>
<stop offset="1" stop-color="#363795"/>
</linearGradient>
<linearGradient id="paint34_linear" x1="100.785" y1="32.4671" x2="104.101" y2="32.4671" gradientUnits="userSpaceOnUse">
<stop stop-color="#005C97"/>
<stop offset="1" stop-color="#363795"/>
</linearGradient>
<linearGradient id="paint35_linear" x1="106.57" y1="30.8122" x2="109.59" y2="30.8122" gradientUnits="userSpaceOnUse">
<stop stop-color="#005C97"/>
<stop offset="1" stop-color="#363795"/>
</linearGradient>
<linearGradient id="paint36_linear" x1="83.5875" y1="21.083" x2="84.5509" y2="21.083" gradientUnits="userSpaceOnUse">
<stop stop-color="#005C97"/>
<stop offset="1" stop-color="#363795"/>
</linearGradient>
</defs>
</svg>